<svg width="100%" height="100%" viewBox="0 0 45 61" fill="none" xmlns="http://www.w3.org/2000/svg">
<path fill-rule="evenodd" clip-rule="evenodd" d="M18.3566 16.3093C18.1969 16.3093 17.9574 16.1937 17.8935 16.0616C17.4395 15.1376 17.0284 14.1934 16.5792 13.2673C16.3619 12.8194 16.119 12.3187 16.7755 12.1315L18.6454 11.6111C22.9637 10.4088 27.2652 9.16569 31.597 8.03316C31.9004 7.95059 31.9324 7.81849 31.8685 7.53776C31.7088 6.99283 31.565 6.43138 31.4372 5.86994C31.3893 5.63875 31.2616 5.53967 31.038 5.50665C30.6946 5.44885 30.3472 5.38693 29.9998 5.325C29.6524 5.26308 29.3051 5.20115 28.9617 5.14336C28.4753 5.06225 28.4684 4.09569 28.9776 4.02046C29.5526 3.9379 30.1275 3.83883 30.7983 3.72325C30.3351 2.69943 29.888 1.74165 29.4248 0.717837C29.888 0.503166 30.3033 0.288495 30.7824 0.0573111C31.8206 2.50126 32.8427 4.91217 33.8809 7.40566C34.9692 5.75534 35.9871 4.05824 37.0911 2.41869C37.3147 2.08843 37.6661 1.75817 38.0175 1.64257C40.0778 0.949022 42.1541 0.271982 44.3262 0.0242854C44.9172 -0.0417678 44.9811 -0.00874029 44.997 0.585731C45.0439 1.92786 44.541 3.17391 43.7672 4.23514C42.6492 5.78737 41.1958 6.92678 39.5667 7.80197C38.4071 8.41394 37.22 8.95035 36.0263 9.48977L35.882 9.55499C35.5454 9.70716 35.2082 9.85982 34.8711 10.0147C34.5357 10.1634 34.376 10.312 34.4559 10.7413C35.0957 13.8283 35.6784 16.9265 36.3131 20.0145C36.6634 21.719 37.0142 23.426 37.2668 25.1408C37.8578 29.17 38.3529 33.1992 38.8161 37.2449C39.0077 38.9127 39.0556 40.6136 39.1355 42.2979C39.356 46.3005 39.5109 50.3068 39.6945 54.3112L39.8862 58.4808L39.9341 59.4716C39.95 59.6863 39.8702 59.8019 39.6466 59.8019C39.0716 59.8184 38.4807 59.8514 37.9057 59.8844C37.6342 59.9009 37.6182 59.7193 37.6022 59.5211C37.3831 56.8481 37.2788 54.1426 36.628 51.5288L34.5676 43.2557L34.1642 41.6601C34.0624 41.2539 33.9586 40.8407 33.8489 40.4154C32.0957 41.6788 31.5556 42.1661 31.553 44.4318C31.5515 45.7179 31.7765 47.0013 32.0282 48.2592C32.7003 51.8798 33.5933 55.4473 34.5197 59.0092C34.5357 59.0918 34.5517 59.1744 34.5836 59.2404C34.7433 59.6202 34.5836 59.7028 34.2322 59.7193C33.7052 59.7523 33.1781 59.8184 32.6511 59.8844C32.3955 59.9174 32.2837 59.8349 32.1879 59.5707C30.4734 54.5224 28.5859 49.5474 27.2527 44.3786C27.1888 44.1474 27.1409 44.0483 26.8854 44.1309C24.0873 44.9888 21.2483 45.292 18.3886 45.8018C18.2289 45.8183 18.0372 45.9339 17.9574 46.066C16.0408 49.3191 13.4055 51.73 9.97162 53.1832C9.73205 53.2823 9.66816 53.3978 9.71607 53.6786C10.0593 55.7546 10.5022 57.8541 10.6584 59.9536C10.6584 59.9736 8.75912 60.0053 8.5821 60.0053C8.50224 60.0053 8.39044 59.8237 8.37447 59.7081L8.25167 59.1173L7.0169 53.0346C6.96898 52.8199 7.04884 52.5061 7.17661 52.3245C8.76838 50.1724 10.403 48.0747 11.9665 45.9195C11.7779 45.9093 11.597 45.9022 11.4215 45.8954C10.5199 45.8602 9.6489 45.5805 9.04527 46.4315C7.9113 48.0498 6.50581 49.3874 4.81283 50.3286C4.20592 50.6589 3.56706 50.9066 2.89626 51.2038C3.62218 54.0491 4.35195 56.8934 5.06838 59.7411C4.28577 59.7411 3.56706 59.7576 2.84834 59.7246C2.78446 59.7246 2.68863 59.5264 2.65668 59.4109L0.883851 53.6147C0.610971 52.7351 -0.0010938 51.6271 0.000246338 50.6994C0.000485584 50.5338 0.0541047 50.38 0.165135 50.213C1.62319 48.1589 3.07285 46.0987 4.5237 44.0395C4.66939 43.8329 4.67961 43.641 4.58923 43.4074C3.56706 40.8148 2.64071 38.1892 2.1456 35.4316L2.0338 34.8723L1.95361 34.8046C1.57041 35.4154 1.18719 36.0262 0.772052 36.67C-0.155893 35.3352 0.851792 33.5266 1.96991 32.6596C4.43588 30.7386 6.94961 28.8759 9.39411 26.9278C10.7472 25.8495 12.0897 24.7206 13.7989 24.2689C16.0382 23.6632 18.4792 23.5503 20.771 23.2092C22.2276 22.9924 23.6847 22.7755 25.1445 22.5647C25.5917 22.4987 25.8313 22.3335 25.991 21.8877C26.582 20.1369 27.2219 18.4169 27.8437 16.686C27.9161 16.3865 27.6941 16.419 27.4603 16.3888C24.4258 16.3558 21.3912 16.3424 18.3566 16.3093ZM20.0601 30.5491C19.9986 30.5621 19.9318 30.5763 19.858 30.5954C19.8299 30.578 19.7901 30.5627 19.7481 30.5465C19.6705 30.5166 19.5856 30.4839 19.5545 30.4303C19.5226 30.3312 19.5705 30.1661 19.6344 30.067C19.7142 29.9514 19.842 29.8523 19.9698 29.8028L22.5002 28.7758C22.716 28.6892 22.9637 28.5907 23.1001 28.908C23.2279 29.2217 23.0522 29.3373 22.7967 29.4364L21.2366 30.0913C21.1426 30.1315 21.0487 30.1742 20.9545 30.2171C20.6639 30.3494 20.37 30.4832 20.0601 30.5491ZM18.8134 26.8522C18.5846 26.9133 18.256 27.0009 18.1011 26.5497C19.1035 25.8945 20.2146 25.5514 21.3318 25.2063C21.7172 25.0873 22.1034 24.968 22.4861 24.8356C23.1264 24.6141 23.7899 24.4489 24.4577 24.3339C24.5974 25.0079 24.5863 25.0112 24.0284 25.1777L21.7426 25.9222C21.5567 25.9841 21.371 26.0467 21.1853 26.1093C20.4 26.3739 19.6142 26.6387 18.8134 26.8522ZM15.4818 29.2248V29.1918C15.2712 29.1918 15.0595 29.1928 14.8469 29.1939C14.2051 29.197 13.5543 29.2001 12.8944 29.1753C12.6069 29.1588 12.3354 29.0597 12.0639 28.9606C12 28.9441 11.9042 28.7625 11.9201 28.7294C11.955 28.6854 11.9898 28.6356 12.0251 28.5852C12.1354 28.4273 12.2502 28.2631 12.3833 28.2506C13.1979 28.168 14.0284 28.1515 14.8589 28.1515C15.3252 28.1515 15.802 28.1949 16.2723 28.2378C16.3819 28.2478 16.4911 28.2577 16.5998 28.2671L16.6302 28.2691C16.8605 28.2843 17.0942 28.2997 17.0789 28.6634C17.047 29.0597 16.9032 29.2248 16.5519 29.2248H15.4818ZM9.75601 32.7572C9.62987 32.8093 9.49943 32.8632 9.3647 32.9238C9.32078 32.899 9.27087 32.8732 9.22095 32.8474C9.07122 32.77 8.92149 32.6926 8.93347 32.6431C8.96541 32.4449 9.06124 32.1642 9.20499 32.0816C10.3069 31.4377 11.4248 30.8267 12.5427 30.2158C12.8142 30.0837 13.134 30.001 13.2777 30.3808C13.4055 30.711 13.2298 30.8927 12.9104 31.0578C12.4017 31.3207 11.9042 31.6067 11.4079 31.8919C11.0627 32.0902 10.7182 32.2882 10.3709 32.4779C10.1787 32.5825 9.97378 32.6672 9.75601 32.7572ZM13.9643 33.5523C14.022 33.5578 14.0805 33.5634 14.1402 33.5678C14.1881 34.1788 14.0603 34.3109 13.5812 34.3604C13.086 34.4017 12.5949 34.4554 12.1038 34.509C11.6127 34.5627 11.1216 34.6164 10.6264 34.6577C10.3709 34.6742 10.0994 34.5916 9.85982 34.509C9.79593 34.476 9.74802 34.1458 9.8119 34.0962C9.98759 33.9641 10.2112 33.8155 10.4348 33.799C11.2014 33.7123 11.968 33.6535 12.7346 33.5946C12.9902 33.575 13.2457 33.5554 13.5013 33.5348C13.6535 33.5227 13.8058 33.5372 13.9643 33.5523ZM13.8316 31.8084C13.7684 31.8102 13.7012 31.8121 13.6291 31.8174C13.7451 31.3527 14.0585 31.2554 14.3423 31.1673C14.817 31.02 15.2871 30.8538 15.7571 30.6876C16.1096 30.563 16.4621 30.4383 16.8165 30.3217C17.1068 30.2261 17.3969 30.1306 17.6858 30.034C17.7071 30.0285 17.7284 30.0193 17.7497 30.0101C17.7923 29.9918 17.8349 29.9734 17.8775 29.9844C17.9893 30.0175 18.1011 30.067 18.1969 30.1165C18.1773 30.152 18.1607 30.1921 18.1444 30.2316C18.1074 30.321 18.0717 30.4074 18.0053 30.4303C17.6699 30.5789 17.3185 30.711 16.9671 30.8266L14.1881 31.7679C14.0799 31.8014 13.9644 31.8047 13.8316 31.8084ZM14.2259 27.0975C14.1597 27.1163 14.0893 27.1362 14.0124 27.1607C13.9935 27.149 13.9694 27.1355 13.9438 27.1212C13.8612 27.0749 13.7644 27.0208 13.7888 26.9956C13.8048 26.8469 13.8527 26.6653 13.9645 26.5827C14.236 26.3846 14.5554 26.2194 14.8589 26.0708L15.0612 25.9791C15.5016 25.779 15.9349 25.5822 16.3922 25.4103C16.4922 25.3758 16.6232 25.4133 16.7529 25.4505C16.8095 25.4667 16.8658 25.4828 16.9192 25.4929C16.8775 25.5544 16.8448 25.6274 16.8126 25.699C16.7584 25.8197 16.7059 25.9365 16.6157 25.9883C16.0349 26.2955 15.4541 26.5673 14.8637 26.8436L14.5395 26.9956C14.4389 27.0371 14.3384 27.0656 14.2259 27.0975ZM18.8358 35.054C18.7425 35.0433 18.656 34.963 18.5674 34.8809C18.5195 34.8365 18.471 34.7915 18.4205 34.7567C18.4684 34.7237 18.5164 34.6797 18.5643 34.6356C18.6601 34.5476 18.7559 34.4595 18.8518 34.4595C19.6982 34.443 20.5447 34.4595 21.3912 34.4925C21.4711 34.4925 21.5592 34.5854 21.6438 34.6745C21.6775 34.71 21.7107 34.745 21.7426 34.7733C21.7025 34.8043 21.6625 34.8435 21.6219 34.8832C21.5331 34.97 21.442 35.0592 21.3433 35.0705C21.0699 35.1058 20.7883 35.0992 20.5044 35.0924C20.3127 35.0879 20.1195 35.0843 19.9257 35.0807C19.5623 35.074 19.1969 35.0673 18.8358 35.054ZM6.17041 31.8009C6.61761 31.4376 9.15707 30.4798 9.85982 30.4468C9.81726 30.5055 9.7817 30.5598 9.74982 30.6085C9.67404 30.7243 9.61908 30.8083 9.54039 30.8431C8.71296 31.1828 7.88553 31.5033 7.05103 31.8266L7.04895 31.8274C6.78881 31.9281 6.52797 32.0292 6.26624 32.1312C6.22675 32.1414 6.17507 32.139 6.10364 32.1356C6.0595 32.1336 6.00781 32.1312 5.94681 32.1312C5.9775 32.0836 6.00327 32.0393 6.02676 31.9991C6.0766 31.9136 6.11612 31.8458 6.17041 31.8009ZM13.9006 36.4576V36.4411C13.8132 36.4411 13.7249 36.4431 13.6361 36.4452C13.3676 36.4514 13.0945 36.4577 12.8305 36.4081C12.7317 36.3967 12.6479 36.315 12.5637 36.2329C12.5254 36.1957 12.4871 36.1583 12.4472 36.1273C12.4893 36.1001 12.5296 36.0658 12.5694 36.0319C12.6503 35.963 12.7288 35.8961 12.8145 35.8961C13.5652 35.8961 14.2999 35.9127 15.0346 35.9457C15.0985 35.9457 15.1623 36.0191 15.2262 36.0925C15.2582 36.1292 15.2901 36.1659 15.3221 36.1934C15.2822 36.2228 15.2444 36.2606 15.2071 36.2979C15.1399 36.3651 15.0746 36.4305 15.0026 36.4411C14.7271 36.4658 14.4516 36.4628 14.1761 36.4597C14.0843 36.4586 13.9924 36.4576 13.9006 36.4576ZM20.195 28.3605C20.0138 28.4334 19.8321 28.5065 19.6503 28.5808C19.6216 28.5512 19.5889 28.5258 19.5586 28.5024C19.5046 28.4606 19.4587 28.425 19.4587 28.3827C19.4587 28.2671 19.5066 28.0854 19.5864 28.0359C19.842 27.8873 20.1135 27.7552 20.401 27.6396C20.7523 27.5075 21.1038 27.3754 21.4551 27.2763C21.535 27.2433 21.7106 27.3423 21.7586 27.4249C21.7905 27.491 21.7426 27.7056 21.6787 27.7387C21.2273 27.9436 20.7607 28.1328 20.2894 28.3225L20.195 28.3605ZM17.7486 32.7821C17.7638 32.8151 17.7796 32.8494 17.7976 32.8742C17.7827 32.8999 17.7709 32.9256 17.7598 32.9498C17.7351 33.0034 17.7139 33.0497 17.6699 33.0724C17.5261 33.2265 17.3842 33.3825 17.2422 33.5384C16.9582 33.8504 16.6743 34.1623 16.3762 34.4595C16.2991 34.5392 16.1841 34.5639 16.073 34.5879C16.0229 34.5986 15.9736 34.6092 15.929 34.6246C15.9396 34.5699 15.9431 34.5096 15.9467 34.45C15.9538 34.3298 15.9608 34.212 16.0248 34.1458C16.4401 33.6669 16.8873 33.2045 17.3504 32.7421C17.4643 32.6244 17.6827 32.6392 17.7486 32.7821ZM6.61761 35.3595C6.59764 35.3388 6.57768 35.3182 6.55372 35.3017C6.56223 35.2753 6.56847 35.2454 6.57486 35.2148C6.59246 35.1305 6.61118 35.0408 6.6815 35.0044C7.06481 34.7567 7.4641 34.5256 7.87935 34.3109C7.94324 34.2779 8.08698 34.3109 8.11893 34.3604C8.15087 34.41 8.11893 34.5751 8.07101 34.6081C7.60784 34.8888 7.14467 35.1531 6.6815 35.4173C6.65754 35.4008 6.63757 35.3801 6.61761 35.3595ZM25.3681 33.7298C25.1445 33.895 24.9848 33.7463 24.9369 33.3996C24.9688 33.3477 24.9981 33.2931 25.0275 33.2385C25.1008 33.102 25.1741 32.9655 25.2882 32.8711C25.8951 32.2436 26.534 31.6327 27.1569 31.0382C27.3006 30.9061 27.4603 30.7905 27.6201 30.6749C27.6407 30.6594 27.6611 30.6432 27.6814 30.6271C27.8339 30.506 27.9799 30.3903 28.1631 30.6088C28.3547 30.8565 28.3388 31.0877 28.1152 31.2859C27.636 31.7483 27.1409 32.2106 26.6458 32.6565C26.2305 33.0363 25.8153 33.3996 25.3681 33.7298ZM23.6788 27.1182C23.6451 27.0709 23.6172 27.0317 23.5793 26.9925C23.6145 26.9697 23.6484 26.9445 23.6825 26.9192C23.7722 26.8525 23.8628 26.7852 23.9786 26.7613C25.1125 26.2824 26.2465 25.82 27.3965 25.3577C27.4614 25.3353 27.5484 25.3584 27.6325 25.3808C27.6725 25.3914 27.7118 25.4019 27.7478 25.4072C27.7301 25.4392 27.7136 25.4751 27.697 25.5112C27.6537 25.6054 27.6095 25.7017 27.5402 25.7375C26.8215 26.0677 26.0868 26.3815 25.3521 26.6787C25.0283 26.8057 24.6967 26.9166 24.3627 27.0282C24.219 27.0762 24.0748 27.1244 23.9307 27.1741C23.8932 27.1838 23.8503 27.1765 23.805 27.1687C23.7731 27.1633 23.7401 27.1576 23.7071 27.1576L23.6788 27.1182ZM27.6562 28.0168C27.309 28.0755 26.9474 28.1367 26.55 28.1979C26.527 28.179 26.4909 28.1559 26.4515 28.1307C26.3536 28.0682 26.2351 27.9926 26.2465 27.9337C26.2625 27.7686 26.3903 27.4879 26.518 27.4548C27.0569 27.3325 27.5958 27.255 28.1435 27.1761L28.1474 27.1756L28.1552 27.1744C28.2692 27.158 28.3836 27.1415 28.4985 27.1246C28.7381 27.0915 28.8818 27.1906 28.8978 27.4548C28.9137 27.7025 28.8019 27.8346 28.5624 27.8677C28.2618 27.9143 27.9647 27.9646 27.6562 28.0168ZM23.719 30.8771C23.6888 30.8807 23.658 30.8843 23.6272 30.8896C23.755 30.4437 26.0549 29.2052 26.7736 29.2217C26.7485 29.2606 26.7257 29.2994 26.7038 29.3365C26.6422 29.4413 26.5888 29.5319 26.518 29.5685C25.6556 29.9979 24.7771 30.4272 23.8987 30.84C23.8445 30.8624 23.7829 30.8696 23.719 30.8771ZM26.1187 11.0529C25.2882 12.5226 25.2243 13.8767 26.5659 15.1317C25.2397 15.1317 23.9928 14.6044 23.1321 13.5629C23.0682 13.4969 23.0043 13.2987 23.0522 13.2326C23.739 12.1758 24.6493 11.4327 25.8312 11.0529C25.9041 11.0153 26.0226 11.0361 26.1028 11.0501L26.1187 11.0529ZM30.7984 12.3409C29.904 13.695 28.786 14.6858 27.1729 15.0326C28.3388 13.629 28.0992 12.2914 26.9653 10.9043C28.4826 10.9208 29.6645 11.4823 30.7984 12.3409ZM20.1899 32.6759C19.9085 32.68 19.6126 32.6843 19.5544 32.2788C19.5065 31.9485 19.826 31.6348 20.2412 31.6348L22.532 31.6897C22.9562 31.7061 23.3883 31.7228 23.3397 32.2261C23.3046 32.6967 23.0279 32.6875 22.6761 32.6758C22.1099 32.657 21.5412 32.6634 20.9737 32.6697C20.7122 32.6726 20.4509 32.6755 20.1899 32.6759Z" fill="#161412"/>
</svg>
