<svg width="24" height="24" viewBox="0 0 24 24" fill="none" xmlns="http://www.w3.org/2000/svg">
<path fill-rule="evenodd" clip-rule="evenodd" d="M9.34959 8.53846C9.50783 8.79774 9.42592 9.13621 9.16663 9.29445C8.13182 9.92599 7.15516 10.866 6.6659 11.948C7.54864 13.9614 9.64698 15.3809 12.0001 15.3809H12.003C13.0012 15.3861 13.9813 15.1143 14.8342 14.5956C15.0938 14.4377 15.4321 14.5201 15.5899 14.7797C15.7478 15.0392 15.6654 15.3775 15.4058 15.5354C14.3794 16.1596 13.1999 16.4869 11.9986 16.4809C9.11937 16.4803 6.55164 14.6915 5.5577 12.1464C5.50748 12.0178 5.50746 11.8751 5.55763 11.7465C6.12786 10.2848 7.36823 9.10333 8.59359 8.3555C8.85288 8.19726 9.19135 8.27918 9.34959 8.53846ZM11.182 10.3496C11.3968 10.5644 11.3968 10.9126 11.182 11.1274C11.0744 11.235 10.9891 11.3626 10.9309 11.5032C10.8727 11.6437 10.8428 11.7943 10.8428 11.9464C10.8428 12.0985 10.8727 12.2491 10.9309 12.3896C10.9891 12.5301 11.0744 12.6578 11.182 12.7653C11.2895 12.8728 11.4172 12.9582 11.5577 13.0164C11.6982 13.0746 11.8488 13.1045 12.0009 13.1045C12.153 13.1045 12.3036 13.0746 12.4441 13.0164C12.5846 12.9582 12.7123 12.8728 12.8199 12.7653C13.0347 12.5505 13.3829 12.5505 13.5977 12.7653C13.8125 12.9801 13.8125 13.3283 13.5977 13.5431C13.388 13.7528 13.1391 13.9191 12.8651 14.0326C12.5911 14.1461 12.2975 14.2045 12.0009 14.2045C11.7044 14.2045 11.4107 14.1461 11.1368 14.0326C10.8628 13.9191 10.6139 13.7528 10.4042 13.5431C10.1945 13.3334 10.0281 13.0845 9.91467 12.8105C9.80118 12.5365 9.74277 12.2429 9.74277 11.9464C9.74277 11.6498 9.80118 11.3562 9.91467 11.0822C10.0281 10.8082 10.1945 10.5593 10.4042 10.3496C10.619 10.1348 10.9672 10.1348 11.182 10.3496Z" fill="currentColor"/>
<path d="M10.7307 8.06509C10.7657 8.36683 11.0387 8.58306 11.3404 8.54806C11.5593 8.52266 11.7793 8.51008 11.9997 8.51016C12.5309 8.51016 13.0498 8.58256 13.545 8.71782C15.2402 9.18085 16.658 10.3805 17.3438 11.9333C17.26 12.0851 17.1437 12.2483 17.0009 12.4278C16.9152 12.5356 16.8263 12.6415 16.7338 12.7518L16.6879 12.8066C16.5815 12.9336 16.4702 13.0676 16.3692 13.2013C16.1862 13.4437 16.2342 13.7886 16.4766 13.9717C16.719 14.1548 17.0639 14.1067 17.247 13.8643C17.3294 13.7552 17.4244 13.6403 17.5311 13.513L17.5752 13.4604C17.6672 13.3507 17.7664 13.2326 17.8618 13.1126C18.0803 12.8378 18.316 12.5096 18.4575 12.1456C18.5074 12.0172 18.5073 11.8746 18.4571 11.7463C17.4626 9.19975 14.8786 7.41031 12.0001 7.41016C11.7373 7.41 11.4747 7.4251 11.2136 7.45538C10.9119 7.49038 10.6957 7.76336 10.7307 8.06509Z" fill="currentColor"/>
<path fill-rule="evenodd" clip-rule="evenodd" d="M7.0566 7.00094C7.27139 6.78615 7.61963 6.78615 7.83442 7.00094L16.9438 16.1103C17.1586 16.3251 17.1586 16.6733 16.9438 16.8881C16.729 17.1029 16.3808 17.1029 16.166 16.8881L7.0566 7.77875C6.84181 7.56396 6.84181 7.21572 7.0566 7.00094Z" fill="currentColor"/>
</svg>
