<svg width="24" height="24" viewBox="0 0 24 24" fill="none" xmlns="http://www.w3.org/2000/svg">
<path fill-rule="evenodd" clip-rule="evenodd" d="M10.7035 10.703C11.0473 10.3592 11.5136 10.166 11.9998 10.166C12.4861 10.166 12.9524 10.3592 13.2962 10.703C13.64 11.0468 13.8332 11.5131 13.8332 11.9993C13.8332 12.4856 13.64 12.9519 13.2962 13.2957C12.9524 13.6395 12.4861 13.8327 11.9998 13.8327C11.5136 13.8327 11.0473 13.6395 10.7035 13.2957C10.3597 12.9519 10.1665 12.4856 10.1665 11.9993C10.1665 11.5131 10.3597 11.0468 10.7035 10.703ZM11.9998 11.166C11.7788 11.166 11.5669 11.2538 11.4106 11.4101C11.2543 11.5664 11.1665 11.7783 11.1665 11.9993C11.1665 12.2204 11.2543 12.4323 11.4106 12.5886C11.5669 12.7449 11.7788 12.8327 11.9998 12.8327C12.2209 12.8327 12.4328 12.7449 12.5891 12.5886C12.7454 12.4323 12.8332 12.2204 12.8332 11.9993C12.8332 11.7783 12.7454 11.5664 12.5891 11.4101C12.4328 11.2538 12.2209 11.166 11.9998 11.166Z" fill="currentColor"/>
<path fill-rule="evenodd" clip-rule="evenodd" d="M6.58707 12C8.09577 14.3893 9.90169 15.5 12 15.5C14.0983 15.5 15.9042 14.3893 17.4129 12C15.9042 9.61069 14.0983 8.5 12 8.5C9.90169 8.5 8.09577 9.61069 6.58707 12ZM5.57125 11.7428C7.2311 8.97635 9.37222 7.5 12 7.5C14.6278 7.5 16.7689 8.97635 18.4287 11.7428C18.5238 11.9011 18.5238 12.0989 18.4287 12.2572C16.7689 15.0237 14.6278 16.5 12 16.5C9.37222 16.5 7.2311 15.0237 5.57125 12.2572C5.47625 12.0989 5.47625 11.9011 5.57125 11.7428Z" fill="currentColor"/>
</svg>
