<svg width="24" height="24" viewBox="0 0 24 24" fill="none" xmlns="http://www.w3.org/2000/svg">
<path d="M11.5023 6.97185L12 7.5644L12.4977 6.97185C13.2526 6.07311 14.4098 5.50352 15.6 5.50352C17.6926 5.50352 19.35 7.17003 19.35 9.34943C19.35 10.6811 18.7679 11.9418 17.6174 13.38C16.4594 14.8277 14.7908 16.3773 12.7182 18.2977L12.7173 18.2986L12 18.9658L11.2827 18.2986L11.2818 18.2977C9.20922 16.3773 7.54062 14.8277 6.38258 13.38C5.23208 11.9418 4.65 10.6811 4.65 9.34943C4.65 7.17003 6.30736 5.50352 8.4 5.50352C9.59023 5.50352 10.7474 6.07311 11.5023 6.97185Z" stroke="currentColor" stroke-width="1.3"/>
</svg>
