<svg width="24" height="24" viewBox="0 0 24 24" fill="none" xmlns="http://www.w3.org/2000/svg">
<path d="M11.6171 6.77186L12 7.22767L12.3829 6.77186C13.1648 5.84095 14.3632 5.25 15.6 5.25C17.7783 5.25 19.5 6.98655 19.5 9.24591C19.5 10.6259 18.8953 11.9192 17.7346 13.3702C16.568 14.8286 14.8898 16.3865 12.8202 18.3042L12.8195 18.3049L12 19.0671L11.1805 18.3049L11.1798 18.3042C9.11017 16.3865 7.43202 14.8286 6.26545 13.3702C5.10468 11.9192 4.5 10.6259 4.5 9.24591C4.5 6.98655 6.22166 5.25 8.4 5.25C9.6368 5.25 10.8352 5.84095 11.6171 6.77186Z" stroke="currentColor"/>
</svg>
