<svg width="24" height="24" viewBox="0 0 24 24" fill="none" xmlns="http://www.w3.org/2000/svg">
<path d="M11.5023 6.61834L12 7.21089L12.4977 6.61834C13.2526 5.71959 14.4098 5.15 15.6 5.15C17.6926 5.15 19.35 6.81651 19.35 8.99591C19.35 10.3276 18.7679 11.5883 17.6174 13.0265C16.4594 14.4742 14.7908 16.0238 12.7182 17.9442L12.7173 17.945L12 18.6123L11.2827 17.945L11.2818 17.9442C9.20922 16.0238 7.54062 14.4742 6.38258 13.0265C5.23208 11.5883 4.65 10.3276 4.65 8.99591C4.65 6.81651 6.30736 5.15 8.4 5.15C9.59023 5.15 10.7474 5.71959 11.5023 6.61834Z" stroke="currentColor" stroke-width="1.3"/>
</svg>
