<svg width="371" height="371" viewBox="0 0 371 371" fill="none" xmlns="http://www.w3.org/2000/svg">
<g clip-path="url(#clip0_1733_1887)">
<path d="M370.5 0.25H0.5V370.25H370.5V0.25Z" fill="#F4F4F2"/>
<path d="M150.361 206.113V213.84L142.5 205.594V216.494H143.761V208.768L151.621 217.013V206.113H150.361ZM156.743 211.304C156.743 210.522 156.911 209.825 157.248 209.212C157.594 208.599 158.063 208.115 158.657 207.759C159.25 207.403 159.922 207.225 160.673 207.225C161.435 207.225 162.107 207.403 162.69 207.759C163.284 208.115 163.748 208.599 164.084 209.212C164.43 209.825 164.603 210.522 164.603 211.304C164.603 212.085 164.43 212.782 164.084 213.395C163.748 214.008 163.284 214.492 162.69 214.848C162.107 215.204 161.435 215.382 160.673 215.382C159.922 215.382 159.25 215.204 158.657 214.848C158.063 214.492 157.594 214.008 157.248 213.395C156.911 212.782 156.743 212.085 156.743 211.304ZM155.409 211.304C155.409 212.055 155.537 212.757 155.794 213.409C156.061 214.062 156.432 214.631 156.907 215.115C157.381 215.59 157.94 215.965 158.582 216.242C159.225 216.509 159.922 216.642 160.673 216.642C161.435 216.642 162.132 216.509 162.765 216.242C163.407 215.965 163.966 215.59 164.44 215.115C164.915 214.631 165.281 214.062 165.538 213.409C165.805 212.757 165.938 212.055 165.938 211.304C165.938 210.542 165.805 209.84 165.538 209.198C165.281 208.545 164.915 207.982 164.44 207.507C163.966 207.023 163.407 206.647 162.765 206.38C162.132 206.103 161.435 205.965 160.673 205.965C159.922 205.965 159.225 206.103 158.582 206.38C157.94 206.647 157.381 207.023 156.907 207.507C156.432 207.982 156.061 208.545 155.794 209.198C155.537 209.84 155.409 210.542 155.409 211.304ZM176.169 206.113V216.494H177.429V206.113H176.169ZM183.245 209.479L186.626 215.53L190.007 209.479L190.779 216.494H192.039L190.779 205.594L186.626 213.113L182.474 205.594L181.213 216.494H182.474L183.245 209.479ZM196.808 213.38H202.295L201.85 212.193H197.253L196.808 213.38ZM199.522 208.456L201.302 212.638L201.42 212.935L202.933 216.494H204.342L199.522 205.594L194.702 216.494H196.111L197.653 212.846L197.772 212.579L199.522 208.456ZM211.978 212.416H215.433C215.344 212.821 215.201 213.202 215.003 213.558C214.815 213.914 214.573 214.23 214.277 214.507C213.98 214.784 213.624 215.001 213.209 215.159C212.803 215.308 212.344 215.382 211.83 215.382C211.098 215.382 210.435 215.209 209.842 214.863C209.249 214.517 208.774 214.037 208.419 213.424C208.073 212.811 207.9 212.104 207.9 211.304C207.9 210.493 208.073 209.786 208.419 209.183C208.774 208.57 209.249 208.09 209.842 207.744C210.435 207.398 211.098 207.225 211.83 207.225C212.621 207.225 213.308 207.383 213.891 207.7C214.474 208.006 214.929 208.436 215.255 208.99L216.145 208.174C215.849 207.69 215.483 207.285 215.048 206.958C214.623 206.632 214.138 206.385 213.594 206.217C213.06 206.049 212.472 205.965 211.83 205.965C211.078 205.965 210.381 206.098 209.738 206.365C209.096 206.622 208.537 206.993 208.063 207.477C207.588 207.952 207.217 208.515 206.95 209.168C206.693 209.821 206.565 210.532 206.565 211.304C206.565 212.075 206.693 212.787 206.95 213.439C207.217 214.092 207.588 214.66 208.063 215.145C208.537 215.619 209.096 215.99 209.738 216.257C210.381 216.514 211.078 216.642 211.83 216.642C212.621 216.642 213.322 216.499 213.935 216.212C214.558 215.916 215.082 215.515 215.507 215.011C215.933 214.507 216.254 213.933 216.471 213.291C216.689 212.638 216.798 211.951 216.798 211.229H211.978V212.416ZM221.356 216.494H226.592V215.308H221.356V216.494ZM221.356 207.299H226.592V206.113H221.356V207.299ZM221.356 211.452H226.295V210.265H221.356V211.452ZM220.659 206.113V216.494H221.92V206.113H220.659Z" fill="#C4C4C4"/>
<path d="M144.606 233.38H150.093L149.648 232.193H145.051L144.606 233.38ZM147.32 228.456L149.1 232.638L149.218 232.935L150.731 236.494H152.14L147.32 225.594L142.5 236.494H143.909L145.451 232.846L145.57 232.579L147.32 228.456ZM157.116 234.151L153.705 226.113H152.296L157.116 237.013L161.936 226.113H160.527L157.116 234.151ZM164.198 233.38H169.686L169.241 232.193H164.643L164.198 233.38ZM166.912 228.456L168.692 232.638L168.811 232.935L170.323 236.494H171.732L166.912 225.594L162.092 236.494H163.501L165.044 232.846L165.162 232.579L166.912 228.456ZM174.478 226.113V236.494H175.739V226.113H174.478ZM179.596 226.113V236.494H184.935V235.308H180.857V226.113H179.596ZM187.756 226.113V236.494H189.017V226.113H187.756ZM193.868 233.38H199.355L198.91 232.193H194.313L193.868 233.38ZM196.582 228.456L198.361 232.638L198.48 232.935L199.993 236.494H201.402L196.582 225.594L191.762 236.494H193.171L194.713 232.846L194.832 232.579L196.582 228.456ZM205.141 231.007H206.817C207.44 231.007 207.979 230.918 208.434 230.74C208.898 230.562 209.259 230.3 209.516 229.954C209.773 229.608 209.902 229.193 209.902 228.708C209.902 228.115 209.773 227.631 209.516 227.255C209.259 226.869 208.898 226.583 208.434 226.395C207.979 226.207 207.44 226.113 206.817 226.113H204.148V236.494H206.965C207.638 236.494 208.236 236.385 208.76 236.168C209.294 235.941 209.714 235.604 210.02 235.159C210.337 234.705 210.495 234.136 210.495 233.454C210.495 232.979 210.406 232.569 210.228 232.223C210.05 231.877 209.798 231.595 209.472 231.378C209.155 231.15 208.785 230.982 208.359 230.873C207.934 230.765 207.47 230.71 206.965 230.71H205.141V231.407H206.965C207.302 231.407 207.608 231.452 207.885 231.541C208.162 231.62 208.399 231.744 208.597 231.912C208.804 232.08 208.963 232.287 209.071 232.534C209.18 232.782 209.234 233.063 209.234 233.38C209.234 233.805 209.136 234.166 208.938 234.462C208.75 234.759 208.483 234.986 208.137 235.145C207.801 235.303 207.41 235.382 206.965 235.382H205.408V227.225H206.817C207.341 227.225 207.776 227.364 208.122 227.64C208.468 227.907 208.641 228.288 208.641 228.782C208.641 229.109 208.562 229.385 208.404 229.613C208.246 229.84 208.028 230.013 207.751 230.132C207.475 230.251 207.163 230.31 206.817 230.31H205.141V231.007ZM213.9 226.113V236.494H219.239V235.308H215.161V226.113H213.9ZM222.757 236.494H227.992V235.308H222.757V236.494ZM222.757 227.299H227.992V226.113H222.757V227.299ZM222.757 231.452H227.695V230.265H222.757V231.452ZM222.06 226.113V236.494H223.321V226.113H222.06Z" fill="#C4C4C4"/>
<path fill-rule="evenodd" clip-rule="evenodd" d="M180.851 140.787C180.68 140.787 180.422 140.663 180.353 140.521C179.865 139.527 179.423 138.512 178.94 137.516C178.706 137.034 178.445 136.496 179.151 136.295L181.162 135.735C185.805 134.442 190.43 133.106 195.088 131.888C195.415 131.799 195.449 131.657 195.38 131.355C195.208 130.769 195.054 130.165 194.917 129.562C194.865 129.313 194.728 129.207 194.487 129.171C194.118 129.109 193.744 129.042 193.371 128.976C192.997 128.909 192.624 128.843 192.255 128.78C191.732 128.693 191.724 127.654 192.272 127.573C192.89 127.484 193.508 127.378 194.229 127.253C193.731 126.153 193.251 125.123 192.753 124.022C193.251 123.791 193.697 123.56 194.212 123.312C195.329 125.94 196.428 128.532 197.544 131.213C198.714 129.439 199.809 127.614 200.996 125.851C201.236 125.496 201.614 125.141 201.992 125.016C204.207 124.27 206.44 123.542 208.776 123.276C209.411 123.205 209.48 123.241 209.497 123.88C209.547 125.323 209.007 126.663 208.175 127.804C206.972 129.473 205.41 130.698 203.658 131.639C202.411 132.297 201.135 132.874 199.851 133.454L199.696 133.524C199.334 133.688 198.971 133.852 198.609 134.019C198.248 134.178 198.076 134.338 198.162 134.8C198.85 138.119 199.477 141.451 200.159 144.771C200.536 146.604 200.913 148.439 201.185 150.283C201.82 154.616 202.353 158.948 202.851 163.298C203.057 165.092 203.108 166.921 203.194 168.732C203.431 173.036 203.598 177.343 203.795 181.649L204.001 186.133L204.053 187.198C204.07 187.429 203.984 187.553 203.744 187.553C203.125 187.571 202.49 187.606 201.872 187.642C201.58 187.66 201.563 187.464 201.546 187.251C201.31 184.377 201.198 181.468 200.498 178.657L198.283 169.761L197.849 168.046C197.739 167.609 197.628 167.165 197.51 166.707C195.625 168.066 195.044 168.59 195.041 171.026C195.039 172.409 195.281 173.789 195.552 175.142C196.275 179.035 197.235 182.871 198.231 186.701C198.248 186.79 198.265 186.878 198.3 186.949C198.471 187.358 198.3 187.447 197.922 187.464C197.355 187.5 196.788 187.571 196.222 187.642C195.947 187.677 195.827 187.589 195.724 187.304C193.88 181.876 191.851 176.527 190.417 170.969C190.348 170.72 190.297 170.614 190.022 170.703C187.013 171.625 183.961 171.951 180.886 172.499C180.714 172.517 180.508 172.641 180.422 172.783C178.361 176.281 175.528 178.874 171.835 180.436C171.578 180.543 171.509 180.667 171.56 180.969C171.929 183.201 172.406 185.459 172.574 187.716C172.574 187.738 170.531 187.772 170.341 187.772C170.255 187.772 170.135 187.577 170.118 187.452L169.986 186.817L168.658 180.276C168.607 180.046 168.692 179.708 168.83 179.513C170.541 177.199 172.299 174.943 173.98 172.626C173.777 172.615 173.583 172.607 173.394 172.6C172.425 172.562 171.488 172.261 170.839 173.176C169.62 174.916 168.109 176.355 166.288 177.367C165.636 177.722 164.949 177.988 164.227 178.308C165.008 181.367 165.793 184.426 166.563 187.488C165.721 187.488 164.949 187.506 164.176 187.47C164.107 187.47 164.004 187.257 163.97 187.133L162.063 180.9C161.77 179.954 161.112 178.763 161.113 177.765C161.114 177.587 161.171 177.422 161.291 177.243C162.858 175.034 164.417 172.819 165.977 170.604C166.134 170.382 166.145 170.176 166.048 169.925C164.949 167.137 163.952 164.314 163.42 161.348L163.3 160.747L163.214 160.674C162.802 161.331 162.39 161.988 161.943 162.68C160.945 161.245 162.029 159.3 163.231 158.368C165.883 156.302 168.586 154.299 171.214 152.205C172.669 151.045 174.113 149.831 175.951 149.346C178.358 148.694 180.983 148.573 183.447 148.206C185.014 147.973 186.58 147.74 188.15 147.513C188.631 147.442 188.889 147.265 189.06 146.785C189.696 144.903 190.384 143.053 191.052 141.192C191.13 140.87 190.892 140.905 190.64 140.872C187.377 140.837 184.114 140.822 180.851 140.787ZM182.683 156.098C182.617 156.113 182.545 156.128 182.466 156.148C182.436 156.13 182.393 156.113 182.348 156.096C182.264 156.064 182.173 156.028 182.139 155.971C182.105 155.864 182.157 155.687 182.225 155.58C182.311 155.456 182.448 155.349 182.586 155.296L185.307 154.192C185.539 154.099 185.805 153.993 185.952 154.334C186.089 154.671 185.9 154.796 185.626 154.902L183.948 155.606C183.847 155.649 183.746 155.695 183.645 155.742C183.332 155.884 183.016 156.028 182.683 156.098ZM181.342 152.123C181.096 152.189 180.743 152.283 180.577 151.798C181.654 151.094 182.849 150.725 184.05 150.354C184.465 150.226 184.88 150.097 185.292 149.955C185.98 149.717 186.694 149.539 187.412 149.415C187.562 150.14 187.55 150.144 186.95 150.323L184.492 151.123C184.292 151.19 184.093 151.257 183.893 151.324C183.049 151.609 182.204 151.894 181.342 152.123ZM177.76 154.675V154.639C177.534 154.639 177.306 154.64 177.077 154.641C176.387 154.645 175.687 154.648 174.978 154.621C174.669 154.604 174.377 154.497 174.085 154.39C174.016 154.373 173.913 154.177 173.93 154.142C173.968 154.095 174.005 154.041 174.043 153.987C174.162 153.817 174.285 153.64 174.428 153.627C175.304 153.538 176.197 153.52 177.09 153.52C177.592 153.52 178.104 153.567 178.61 153.613C178.728 153.624 178.845 153.635 178.962 153.645L178.995 153.647C179.243 153.663 179.494 153.68 179.477 154.071C179.443 154.497 179.289 154.675 178.911 154.675H177.76ZM171.603 158.473C171.468 158.529 171.327 158.587 171.183 158.652C171.135 158.625 171.082 158.598 171.028 158.57C170.867 158.487 170.706 158.403 170.719 158.35C170.753 158.137 170.856 157.835 171.011 157.746C172.196 157.054 173.398 156.397 174.6 155.74C174.892 155.598 175.236 155.509 175.39 155.917C175.528 156.273 175.339 156.468 174.995 156.645C174.448 156.928 173.913 157.236 173.38 157.542C173.008 157.756 172.638 157.969 172.265 158.173C172.058 158.285 171.838 158.376 171.603 158.473ZM176.128 159.328C176.19 159.334 176.253 159.34 176.318 159.344C176.369 160.001 176.232 160.143 175.716 160.197C175.184 160.241 174.656 160.299 174.128 160.357C173.6 160.414 173.072 160.472 172.539 160.516C172.265 160.534 171.973 160.445 171.715 160.356C171.646 160.321 171.595 159.966 171.663 159.913C171.852 159.771 172.093 159.611 172.333 159.593C173.158 159.5 173.982 159.437 174.806 159.373C175.081 159.352 175.356 159.331 175.631 159.309C175.794 159.296 175.958 159.311 176.128 159.328ZM175.986 157.453C175.918 157.454 175.846 157.457 175.768 157.462C175.893 156.963 176.23 156.858 176.535 156.763C177.045 156.605 177.551 156.426 178.056 156.247C178.435 156.113 178.814 155.979 179.195 155.854C179.507 155.751 179.819 155.649 180.13 155.545C180.153 155.539 180.176 155.529 180.199 155.519C180.245 155.499 180.29 155.48 180.336 155.491C180.456 155.527 180.577 155.58 180.68 155.633C180.659 155.672 180.641 155.715 180.623 155.757C180.583 155.853 180.545 155.946 180.474 155.971C180.113 156.131 179.735 156.273 179.357 156.397L176.369 157.409C176.253 157.445 176.128 157.449 175.986 157.453ZM176.41 152.387C176.339 152.407 176.263 152.429 176.18 152.455C176.16 152.442 176.134 152.428 176.106 152.413C176.018 152.363 175.913 152.305 175.94 152.277C175.957 152.118 176.008 151.922 176.129 151.834C176.421 151.621 176.764 151.443 177.09 151.283L177.308 151.184C177.781 150.969 178.247 150.758 178.739 150.573C178.847 150.536 178.987 150.576 179.127 150.616C179.188 150.634 179.248 150.651 179.306 150.662C179.261 150.728 179.226 150.806 179.191 150.883C179.133 151.013 179.076 151.139 178.979 151.194C178.355 151.525 177.73 151.817 177.095 152.114L176.747 152.277C176.639 152.322 176.531 152.353 176.41 152.387ZM181.367 160.942C181.266 160.931 181.173 160.845 181.078 160.756C181.026 160.709 180.974 160.66 180.92 160.623C180.972 160.587 181.023 160.54 181.075 160.493C181.178 160.398 181.281 160.303 181.384 160.303C182.294 160.285 183.204 160.303 184.114 160.339C184.2 160.339 184.295 160.439 184.386 160.534C184.422 160.573 184.458 160.61 184.492 160.641C184.449 160.674 184.406 160.716 184.362 160.759C184.267 160.852 184.169 160.948 184.063 160.96C183.769 160.998 183.466 160.991 183.161 160.984C182.955 160.979 182.747 160.975 182.539 160.971C182.148 160.964 181.755 160.957 181.367 160.942ZM167.748 157.445C168.229 157.054 170.959 156.024 171.715 155.989C171.669 156.052 171.631 156.11 171.597 156.162C171.515 156.287 171.456 156.377 171.371 156.415C170.482 156.78 169.592 157.125 168.695 157.472L168.693 157.473C168.413 157.581 168.132 157.69 167.851 157.8C167.808 157.811 167.753 157.808 167.676 157.804C167.629 157.802 167.573 157.8 167.507 157.8C167.54 157.748 167.568 157.701 167.593 157.658C167.647 157.566 167.689 157.493 167.748 157.445ZM176.06 162.452V162.434C175.966 162.434 175.871 162.436 175.775 162.438C175.487 162.445 175.193 162.452 174.909 162.398C174.803 162.386 174.713 162.298 174.622 162.21C174.581 162.17 174.54 162.13 174.497 162.097C174.542 162.067 174.586 162.03 174.628 161.994C174.716 161.92 174.8 161.848 174.892 161.848C175.699 161.848 176.489 161.866 177.279 161.901C177.348 161.901 177.417 161.98 177.485 162.059C177.52 162.099 177.554 162.138 177.588 162.168C177.545 162.199 177.505 162.24 177.465 162.28C177.392 162.352 177.322 162.423 177.245 162.434C176.949 162.461 176.652 162.457 176.356 162.454C176.257 162.453 176.159 162.452 176.06 162.452ZM182.828 153.745C182.633 153.824 182.438 153.902 182.242 153.982C182.212 153.95 182.176 153.923 182.144 153.898C182.086 153.853 182.036 153.815 182.036 153.769C182.036 153.645 182.088 153.449 182.174 153.396C182.448 153.236 182.74 153.094 183.05 152.97C183.427 152.828 183.805 152.686 184.183 152.579C184.269 152.544 184.458 152.65 184.509 152.739C184.544 152.81 184.492 153.041 184.423 153.077C183.938 153.297 183.436 153.5 182.93 153.704L182.828 153.745ZM180.198 158.5C180.214 158.535 180.231 158.572 180.25 158.599C180.234 158.626 180.222 158.654 180.21 158.68C180.183 158.738 180.16 158.787 180.113 158.812C179.958 158.977 179.806 159.145 179.653 159.313C179.348 159.648 179.042 159.984 178.722 160.303C178.639 160.389 178.515 160.416 178.396 160.441C178.342 160.453 178.289 160.464 178.241 160.481C178.252 160.422 178.256 160.357 178.26 160.293C178.268 160.164 178.275 160.037 178.344 159.966C178.791 159.451 179.271 158.954 179.769 158.457C179.892 158.33 180.127 158.346 180.198 158.5ZM168.229 161.271C168.207 161.249 168.186 161.227 168.16 161.209C168.169 161.18 168.176 161.148 168.183 161.115C168.202 161.025 168.222 160.928 168.297 160.889C168.71 160.623 169.139 160.374 169.585 160.143C169.654 160.108 169.809 160.143 169.843 160.197C169.877 160.25 169.843 160.428 169.792 160.463C169.293 160.765 168.795 161.049 168.297 161.333C168.272 161.315 168.25 161.293 168.229 161.271ZM188.391 159.519C188.15 159.696 187.978 159.536 187.927 159.164C187.961 159.108 187.993 159.049 188.024 158.99C188.103 158.844 188.182 158.697 188.305 158.595C188.957 157.921 189.644 157.264 190.314 156.624C190.469 156.482 190.64 156.358 190.812 156.234C190.834 156.217 190.856 156.2 190.878 156.182C191.042 156.052 191.199 155.928 191.396 156.163C191.602 156.429 191.585 156.678 191.344 156.891C190.829 157.388 190.297 157.885 189.764 158.364C189.318 158.773 188.871 159.164 188.391 159.519ZM186.574 152.409C186.538 152.358 186.508 152.316 186.467 152.274C186.505 152.25 186.541 152.223 186.578 152.195C186.675 152.124 186.772 152.051 186.896 152.026C188.116 151.511 189.335 151.013 190.572 150.516C190.641 150.492 190.735 150.517 190.825 150.541C190.868 150.553 190.911 150.564 190.949 150.57C190.93 150.604 190.913 150.643 190.895 150.681C190.848 150.783 190.801 150.886 190.726 150.925C189.953 151.28 189.163 151.617 188.373 151.937C188.025 152.073 187.669 152.193 187.31 152.313C187.155 152.364 187 152.416 186.845 152.469C186.805 152.48 186.758 152.472 186.71 152.464C186.676 152.458 186.64 152.452 186.604 152.452L186.574 152.409ZM190.851 153.376C190.478 153.439 190.089 153.505 189.661 153.57C189.637 153.55 189.598 153.525 189.555 153.498C189.45 153.431 189.323 153.35 189.335 153.286C189.352 153.109 189.49 152.807 189.627 152.771C190.206 152.64 190.786 152.556 191.375 152.472L191.379 152.471L191.387 152.47C191.51 152.452 191.633 152.434 191.757 152.416C192.014 152.381 192.169 152.487 192.186 152.771C192.203 153.038 192.083 153.18 191.825 153.215C191.502 153.265 191.183 153.319 190.851 153.376ZM186.617 156.451C186.585 156.455 186.552 156.459 186.519 156.465C186.656 155.985 189.129 154.653 189.902 154.671C189.875 154.713 189.85 154.755 189.827 154.795C189.761 154.907 189.703 155.005 189.627 155.044C188.7 155.506 187.755 155.967 186.811 156.411C186.752 156.435 186.686 156.443 186.617 156.451ZM189.198 135.135C188.305 136.715 188.236 138.171 189.679 139.521C188.252 139.521 186.912 138.954 185.986 137.834C185.917 137.763 185.849 137.55 185.9 137.479C186.639 136.342 187.618 135.543 188.889 135.135C188.967 135.094 189.094 135.117 189.181 135.132L189.198 135.135ZM194.23 136.52C193.268 137.976 192.066 139.041 190.331 139.414C191.585 137.905 191.327 136.467 190.108 134.975C191.739 134.993 193.01 135.597 194.23 136.52ZM182.823 158.385C182.52 158.39 182.202 158.394 182.139 157.958C182.088 157.603 182.431 157.266 182.878 157.266L185.341 157.325C185.797 157.343 186.262 157.361 186.209 157.902C186.172 158.408 185.874 158.398 185.496 158.385C184.887 158.365 184.276 158.372 183.665 158.379C183.384 158.382 183.103 158.385 182.823 158.385Z" fill="#C4C4C4"/>
</g>
<defs>
<clipPath id="clip0_1733_1887">
<rect width="370" height="370" fill="white" transform="translate(0.5 0.25)"/>
</clipPath>
</defs>
</svg>
