<svg width="24" height="25" viewBox="0 0 24 25" fill="none" xmlns="http://www.w3.org/2000/svg">
<path d="M19 20.1384L19.3535 20.492L20.0606 19.7848L19.707 19.4313L19 20.1384ZM14.1805 15.319L19 20.1384L19.707 19.4313L14.8876 14.6119L14.1805 15.319ZM10.4576 4.21484C6.97203 4.21484 4.14697 7.03991 4.14697 10.5255H5.14697C5.14697 7.59219 7.52432 5.21484 10.4576 5.21484V4.21484ZM4.14697 10.5255C4.14697 14.011 6.97204 16.836 10.4576 16.836V15.836C7.52432 15.836 5.14697 13.4587 5.14697 10.5255H4.14697ZM10.4576 16.836C13.9431 16.836 16.7682 14.011 16.7682 10.5255H15.7682C15.7682 13.4587 13.3908 15.836 10.4576 15.836V16.836ZM16.7682 10.5255C16.7682 7.03991 13.9431 4.21484 10.4576 4.21484V5.21484C13.3908 5.21484 15.7682 7.59219 15.7682 10.5255H16.7682Z" fill="currentColor"/>
</svg>
