<svg width="63" height="36" viewBox="0 0 63 36" fill="none" xmlns="http://www.w3.org/2000/svg">
<path d="M0.96 13.6H5.28V14.56H1.98V16.96H5.16V17.92H1.98V22H0.96V13.6ZM7.96 13.6H8.98V22H7.96V13.6ZM11.9014 13.6H12.9214V21.04H16.2214V22H11.9014V13.6ZM16.62 14.56V13.6H21.96V14.56H19.8V22H18.78V14.56H16.62ZM24.0381 13.6H28.8381V14.56H25.0581V16.96H28.5981V17.92H25.0581V21.04H28.8381V22H24.0381V13.6ZM31.6358 13.6H33.9158C34.4598 13.6 34.9438 13.704 35.3678 13.912C35.7998 14.112 36.1398 14.4 36.3878 14.776C36.6438 15.152 36.7718 15.6 36.7718 16.12C36.7718 16.752 36.5838 17.28 36.2078 17.704C35.8398 18.12 35.3598 18.4 34.7678 18.544L37.2758 22H36.0158L33.6758 18.64H32.6558V22H31.6358V13.6ZM33.9158 14.5H32.6558V17.74H33.9158C34.4598 17.74 34.8998 17.6 35.2358 17.32C35.5798 17.032 35.7518 16.632 35.7518 16.12C35.7518 15.6 35.5798 15.2 35.2358 14.92C34.8998 14.64 34.4598 14.5 33.9158 14.5Z" fill="#65635F"/>
<path d="M61 24L61 12" stroke="#65635F"/>
<path d="M55.5 12L55.5 24" stroke="#65635F"/>
<path d="M50 12L50 24" stroke="#65635F"/>
<path d="M63 15.3047L59 15.3047" stroke="#65635F"/>
<path d="M53.5 20.7578L57.5 20.7578" stroke="#65635F"/>
<path d="M48 17.4414L52 17.4414" stroke="#65635F"/>
</svg>
