<svg width="370" height="370" viewBox="0 0 370 370" fill="none" xmlns="http://www.w3.org/2000/svg">
<rect width="370" height="370" fill="#F4F4F2"/>
<path d="M150.547 205.861V213.588L142.686 205.342V216.242H143.947V208.516L151.807 216.761V205.861H150.547ZM156.929 211.052C156.929 210.27 157.097 209.573 157.434 208.96C157.78 208.347 158.249 207.863 158.843 207.507C159.436 207.151 160.108 206.973 160.859 206.973C161.621 206.973 162.293 207.151 162.876 207.507C163.47 207.863 163.934 208.347 164.27 208.96C164.616 209.573 164.789 210.27 164.789 211.052C164.789 211.833 164.616 212.53 164.27 213.143C163.934 213.756 163.47 214.24 162.876 214.596C162.293 214.952 161.621 215.13 160.859 215.13C160.108 215.13 159.436 214.952 158.843 214.596C158.249 214.24 157.78 213.756 157.434 213.143C157.097 212.53 156.929 211.833 156.929 211.052ZM155.595 211.052C155.595 211.803 155.723 212.505 155.98 213.157C156.247 213.81 156.618 214.379 157.093 214.863C157.567 215.338 158.126 215.713 158.768 215.99C159.411 216.257 160.108 216.39 160.859 216.39C161.621 216.39 162.318 216.257 162.951 215.99C163.593 215.713 164.152 215.338 164.626 214.863C165.101 214.379 165.467 213.81 165.724 213.157C165.991 212.505 166.124 211.803 166.124 211.052C166.124 210.29 165.991 209.588 165.724 208.946C165.467 208.293 165.101 207.73 164.626 207.255C164.152 206.771 163.593 206.395 162.951 206.128C162.318 205.851 161.621 205.713 160.859 205.713C160.108 205.713 159.411 205.851 158.768 206.128C158.126 206.395 157.567 206.771 157.093 207.255C156.618 207.73 156.247 208.293 155.98 208.946C155.723 209.588 155.595 210.29 155.595 211.052ZM176.355 205.861V216.242H177.615V205.861H176.355ZM183.431 209.227L186.812 215.278L190.193 209.227L190.965 216.242H192.225L190.965 205.342L186.812 212.861L182.66 205.342L181.399 216.242H182.66L183.431 209.227ZM196.994 213.128H202.481L202.036 211.941H197.439L196.994 213.128ZM199.708 208.204L201.488 212.386L201.606 212.683L203.119 216.242H204.528L199.708 205.342L194.888 216.242H196.297L197.839 212.594L197.958 212.327L199.708 208.204ZM212.164 212.164H215.619C215.53 212.569 215.387 212.95 215.189 213.306C215.001 213.662 214.759 213.978 214.463 214.255C214.166 214.532 213.81 214.749 213.395 214.907C212.989 215.056 212.53 215.13 212.016 215.13C211.284 215.13 210.621 214.957 210.028 214.611C209.435 214.265 208.96 213.785 208.605 213.172C208.259 212.559 208.086 211.852 208.086 211.052C208.086 210.241 208.259 209.534 208.605 208.931C208.96 208.318 209.435 207.838 210.028 207.492C210.621 207.146 211.284 206.973 212.016 206.973C212.807 206.973 213.494 207.131 214.077 207.448C214.66 207.754 215.115 208.184 215.441 208.738L216.331 207.922C216.035 207.438 215.669 207.033 215.234 206.706C214.809 206.38 214.324 206.133 213.78 205.965C213.246 205.797 212.658 205.713 212.016 205.713C211.264 205.713 210.567 205.846 209.924 206.113C209.282 206.37 208.723 206.741 208.249 207.225C207.774 207.7 207.403 208.263 207.136 208.916C206.879 209.569 206.751 210.28 206.751 211.052C206.751 211.823 206.879 212.535 207.136 213.187C207.403 213.84 207.774 214.408 208.249 214.893C208.723 215.367 209.282 215.738 209.924 216.005C210.567 216.262 211.264 216.39 212.016 216.39C212.807 216.39 213.508 216.247 214.121 215.96C214.744 215.664 215.268 215.263 215.693 214.759C216.119 214.255 216.44 213.681 216.657 213.039C216.875 212.386 216.984 211.699 216.984 210.977H212.164V212.164ZM221.542 216.242H226.778V215.056H221.542V216.242ZM221.542 207.047H226.778V205.861H221.542V207.047ZM221.542 211.2H226.481V210.013H221.542V211.2ZM220.845 205.861V216.242H222.106V205.861H220.845Z" fill="#C4C4C4"/>
<path d="M143.68 233.128H149.167L148.722 231.941H144.125L143.68 233.128ZM146.394 228.204L148.174 232.386L148.292 232.683L149.805 236.242H151.214L146.394 225.342L141.574 236.242H142.983L144.525 232.594L144.644 232.327L146.394 228.204ZM156.19 233.899L152.779 225.861H151.37L156.19 236.761L161.01 225.861H159.601L156.19 233.899ZM163.272 233.128H168.76L168.315 231.941H163.717L163.272 233.128ZM165.986 228.204L167.766 232.386L167.885 232.683L169.397 236.242H170.806L165.986 225.342L161.166 236.242H162.575L164.118 232.594L164.236 232.327L165.986 228.204ZM173.552 225.861V236.242H174.813V225.861H173.552ZM178.67 225.861V236.242H184.009V235.056H179.931V225.861H178.67ZM186.83 225.861V236.242H188.091V225.861H186.83ZM192.942 233.128H198.429L197.984 231.941H193.387L192.942 233.128ZM195.656 228.204L197.435 232.386L197.554 232.683L199.067 236.242H200.476L195.656 225.342L190.836 236.242H192.245L193.787 232.594L193.906 232.327L195.656 228.204ZM204.215 230.755H205.891C206.514 230.755 207.053 230.666 207.508 230.488C207.972 230.31 208.333 230.048 208.59 229.702C208.847 229.356 208.976 228.941 208.976 228.456C208.976 227.863 208.847 227.379 208.59 227.003C208.333 226.617 207.972 226.331 207.508 226.143C207.053 225.955 206.514 225.861 205.891 225.861H203.222V236.242H206.039C206.712 236.242 207.31 236.133 207.834 235.916C208.368 235.689 208.788 235.352 209.094 234.907C209.411 234.453 209.569 233.884 209.569 233.202C209.569 232.727 209.48 232.317 209.302 231.971C209.124 231.625 208.872 231.343 208.546 231.126C208.229 230.898 207.859 230.73 207.433 230.621C207.008 230.513 206.544 230.458 206.039 230.458H204.215V231.155H206.039C206.376 231.155 206.682 231.2 206.959 231.289C207.236 231.368 207.473 231.492 207.671 231.66C207.878 231.828 208.037 232.035 208.145 232.282C208.254 232.53 208.308 232.811 208.308 233.128C208.308 233.553 208.21 233.914 208.012 234.21C207.824 234.507 207.557 234.734 207.211 234.893C206.875 235.051 206.484 235.13 206.039 235.13H204.482V226.973H205.891C206.415 226.973 206.85 227.112 207.196 227.388C207.542 227.655 207.715 228.036 207.715 228.53C207.715 228.857 207.636 229.133 207.478 229.361C207.32 229.588 207.102 229.761 206.825 229.88C206.549 229.999 206.237 230.058 205.891 230.058H204.215V230.755ZM212.974 225.861V236.242H218.313V235.056H214.235V225.861H212.974ZM221.831 236.242H227.066V235.056H221.831V236.242ZM221.831 227.047H227.066V225.861H221.831V227.047ZM221.831 231.2H226.769V230.013H221.831V231.2ZM221.134 225.861V236.242H222.395V225.861H221.134Z" fill="#C4C4C4"/>
<path d="M185 135C183.572 135.38 182.145 135.762 180.716 136.144C180.024 136.329 179.332 136.514 178.639 136.699C178.124 136.84 178.018 137.051 178.249 137.544C178.334 137.723 178.42 137.902 178.506 138.081C178.953 139.016 179.405 139.96 179.881 140.891C179.952 141.032 180.219 141.155 180.396 141.155C181.931 141.171 183.465 141.183 185 141.195V135Z" fill="#C4C4C4"/>
<path fill-rule="evenodd" clip-rule="evenodd" d="M185 148.243C184.384 148.331 183.768 148.419 183.153 148.506C180.815 148.839 178.479 149.172 176.137 149.486C174.966 149.645 173.919 150.085 172.943 150.667C172.224 151.097 171.557 151.614 170.888 152.132C170.598 152.356 170.309 152.58 170.015 152.798C168.939 153.596 167.861 154.392 166.784 155.187C165.247 156.321 163.712 157.454 162.189 158.593C161.337 159.227 160.751 160.09 160.556 161.129C160.432 161.693 160.449 162.309 160.858 162.873C161.319 162.186 161.745 161.535 162.17 160.883C162.198 160.904 162.218 160.916 162.232 160.925C162.253 160.938 162.26 160.942 162.26 160.953C162.306 161.121 162.339 161.303 162.37 161.474C162.374 161.5 162.379 161.526 162.384 161.552C162.934 164.494 163.963 167.294 165.099 170.06C165.205 170.324 165.205 170.5 165.028 170.729L165.026 170.731C163.412 172.932 161.797 175.133 160.183 177.317C159.988 177.598 159.953 177.845 160.059 178.162C160.378 179.078 160.68 180.011 160.982 180.945L162.952 187.128C162.987 187.251 163.094 187.462 163.165 187.462C163.76 187.488 164.356 187.485 164.981 187.482C165.194 187.481 165.41 187.48 165.631 187.48C165.089 185.41 164.538 183.339 163.99 181.28C163.732 180.308 163.474 179.339 163.218 178.373C163.42 178.287 163.62 178.205 163.817 178.124C164.346 177.906 164.856 177.697 165.347 177.44C167.228 176.436 168.79 175.009 170.05 173.283C170.44 172.754 170.813 172.543 171.452 172.631C171.855 172.68 172.258 172.695 172.69 172.711C172.886 172.718 173.087 172.726 173.298 172.737C173.239 172.814 173.188 172.883 173.141 172.946C173.017 173.112 172.926 173.233 172.836 173.336C172.174 174.189 171.508 175.038 170.842 175.889C169.885 177.111 168.926 178.335 167.974 179.571C167.832 179.765 167.743 180.1 167.796 180.329C168.233 182.496 168.699 184.649 169.168 186.814C169.214 187.024 169.259 187.234 169.305 187.445C169.322 187.568 169.447 187.762 169.535 187.762C170.039 187.762 170.543 187.746 171.051 187.731C171.313 187.723 171.577 187.715 171.842 187.709C171.835 187.612 171.831 187.531 171.827 187.458C171.821 187.36 171.817 187.279 171.807 187.198C171.487 185.137 171.15 183.076 170.795 181.015C170.742 180.716 170.813 180.593 171.079 180.487C174.895 178.937 177.823 176.365 179.952 172.895C180.041 172.755 180.254 172.631 180.431 172.614C180.719 172.564 181.013 172.543 181.308 172.521C181.542 172.503 181.776 172.486 182.011 172.455C183.013 172.322 184.009 172.167 185 171.985V158.61H182.526C182.495 158.61 182.464 158.611 182.433 158.611C182.12 158.616 181.792 158.62 181.727 158.188C181.674 157.835 182.029 157.501 182.49 157.501C183.327 157.501 184.163 157.53 185 157.561V155.286C184.53 155.47 184.064 155.661 183.596 155.853C183.258 155.992 182.92 156.131 182.579 156.268C182.492 156.3 182.398 156.319 182.289 156.342C182.22 156.356 182.146 156.371 182.064 156.391C182.033 156.373 181.989 156.356 181.942 156.339C181.856 156.307 181.761 156.272 181.727 156.215C181.691 156.109 181.745 155.933 181.816 155.827C181.904 155.704 182.046 155.598 182.188 155.546C182.851 155.273 183.522 155.017 184.196 154.761C184.464 154.659 184.732 154.557 185 154.453V151.135C184.956 151.149 184.912 151.163 184.868 151.178C184.632 151.254 184.396 151.331 184.158 151.406C183.962 151.469 183.765 151.533 183.568 151.596C182.717 151.871 181.864 152.146 180.999 152.375C180.97 152.381 180.938 152.39 180.904 152.398C180.649 152.463 180.284 152.557 180.112 152.076C181.226 151.376 182.47 151.008 183.716 150.638C184.146 150.511 184.575 150.383 185 150.242V148.243ZM177.202 154.929V154.894C176.968 154.894 176.733 154.895 176.496 154.896C175.783 154.899 175.06 154.903 174.327 154.876C174.007 154.859 173.706 154.753 173.404 154.647C173.333 154.63 173.227 154.436 173.244 154.401C173.283 154.354 173.322 154.301 173.361 154.247C173.484 154.078 173.611 153.903 173.759 153.89C174.664 153.802 175.587 153.784 176.51 153.784C177.028 153.784 177.557 153.831 178.08 153.876C178.202 153.887 178.323 153.898 178.444 153.908C178.455 153.908 178.466 153.909 178.478 153.91C178.734 153.926 178.993 153.942 178.976 154.33C178.941 154.753 178.781 154.929 178.391 154.929H177.202ZM170.84 158.697C170.7 158.753 170.555 158.81 170.405 158.875C170.356 158.848 170.301 158.821 170.245 158.793C170.079 158.711 169.912 158.628 169.926 158.575C169.961 158.364 170.068 158.064 170.227 157.976C171.452 157.289 172.694 156.638 173.936 155.986C174.238 155.845 174.593 155.757 174.753 156.162C174.895 156.514 174.7 156.708 174.345 156.884C173.779 157.165 173.227 157.47 172.675 157.774C172.292 157.986 171.909 158.197 171.523 158.399C171.309 158.511 171.082 158.601 170.84 158.697ZM175.516 159.545C175.58 159.551 175.645 159.557 175.711 159.562C175.764 160.213 175.622 160.354 175.09 160.407C174.54 160.451 173.994 160.508 173.448 160.566C172.903 160.623 172.357 160.68 171.807 160.724C171.523 160.742 171.221 160.654 170.955 160.566C170.884 160.53 170.831 160.178 170.902 160.125C171.097 159.984 171.345 159.826 171.594 159.808C172.446 159.716 173.297 159.653 174.149 159.59C174.433 159.569 174.717 159.548 175.001 159.526C175.17 159.513 175.339 159.529 175.516 159.545ZM175.368 157.685C175.298 157.687 175.223 157.689 175.143 157.695C175.272 157.199 175.62 157.095 175.936 157.001C175.968 156.992 175.999 156.982 176.03 156.972C176.903 156.662 177.795 156.38 178.685 156.099C179.007 155.997 179.33 155.895 179.651 155.792C179.674 155.786 179.698 155.777 179.722 155.767C179.769 155.747 179.816 155.728 179.864 155.739C179.988 155.775 180.112 155.827 180.219 155.88C180.197 155.918 180.178 155.961 180.16 156.003C180.119 156.098 180.079 156.191 180.006 156.215C179.633 156.373 179.242 156.514 178.852 156.638L175.764 157.642C175.644 157.677 175.516 157.681 175.368 157.685ZM175.806 152.66C175.733 152.68 175.655 152.701 175.569 152.727C175.548 152.715 175.521 152.7 175.493 152.685C175.401 152.636 175.293 152.578 175.321 152.551C175.338 152.393 175.392 152.199 175.516 152.111C175.818 151.9 176.172 151.723 176.51 151.565C176.585 151.532 176.66 151.5 176.734 151.467C177.224 151.254 177.705 151.044 178.213 150.86C178.324 150.824 178.47 150.864 178.614 150.903C178.677 150.92 178.74 150.938 178.799 150.948C178.753 151.014 178.716 151.092 178.68 151.168C178.62 151.297 178.562 151.422 178.462 151.477C177.816 151.804 177.171 152.094 176.515 152.389C176.395 152.443 176.275 152.497 176.155 152.551C176.043 152.596 175.931 152.626 175.806 152.66ZM182.401 161.182V161.147C182.235 161.147 182.071 161.149 181.907 161.151C181.582 161.155 181.259 161.159 180.928 161.147C180.825 161.135 180.729 161.05 180.63 160.962C180.577 160.915 180.523 160.867 180.467 160.83C180.52 160.795 180.573 160.748 180.627 160.701C180.733 160.607 180.84 160.513 180.946 160.513C181.887 160.495 182.827 160.513 183.768 160.548C183.857 160.548 183.954 160.647 184.048 160.742C184.086 160.78 184.123 160.817 184.158 160.847C184.114 160.881 184.069 160.922 184.024 160.965C183.925 161.057 183.824 161.152 183.715 161.164C183.411 161.202 183.098 161.195 182.782 161.188C182.656 161.185 182.528 161.182 182.401 161.182ZM166.856 157.677C167.353 157.289 170.174 156.268 170.955 156.233C170.908 156.295 170.868 156.353 170.833 156.405C170.749 156.529 170.688 156.618 170.6 156.655C169.681 157.018 168.761 157.359 167.834 157.704C167.544 157.812 167.254 157.92 166.962 158.029C166.918 158.04 166.861 158.038 166.782 158.034C166.733 158.032 166.675 158.029 166.607 158.029C166.641 157.978 166.67 157.931 166.696 157.888C166.752 157.797 166.795 157.725 166.856 157.677ZM175.445 162.644V162.626C175.348 162.626 175.25 162.629 175.151 162.631C174.853 162.637 174.549 162.644 174.256 162.591C174.146 162.579 174.053 162.492 173.959 162.404C173.917 162.365 173.874 162.325 173.83 162.292C173.877 162.263 173.922 162.226 173.966 162.19C174.056 162.116 174.143 162.045 174.238 162.045C175.072 162.045 175.888 162.063 176.705 162.098C176.776 162.098 176.847 162.176 176.918 162.255C176.953 162.294 176.989 162.333 177.024 162.362C176.98 162.394 176.938 162.434 176.897 162.474C176.822 162.545 176.749 162.615 176.669 162.626C176.363 162.653 176.057 162.65 175.751 162.646C175.649 162.645 175.547 162.644 175.445 162.644ZM182.439 154.007C182.237 154.085 182.035 154.163 181.833 154.242C181.802 154.211 181.765 154.183 181.731 154.158C181.671 154.114 181.62 154.076 181.62 154.031C181.62 153.908 181.674 153.714 181.762 153.661C182.046 153.502 182.348 153.361 182.667 153.238C183.058 153.097 183.448 152.956 183.839 152.851C183.927 152.815 184.123 152.921 184.176 153.009C184.211 153.08 184.158 153.309 184.087 153.344C183.552 153.577 182.998 153.791 182.439 154.007ZM179.72 158.724C179.737 158.759 179.755 158.795 179.775 158.822C179.758 158.849 179.745 158.877 179.733 158.902C179.705 158.96 179.682 159.009 179.633 159.033C179.473 159.198 179.315 159.364 179.158 159.53C178.842 159.863 178.527 160.196 178.195 160.513C178.11 160.598 177.982 160.624 177.859 160.65C177.803 160.661 177.748 160.672 177.699 160.689C177.71 160.63 177.714 160.566 177.718 160.503C177.726 160.374 177.734 160.249 177.805 160.178C178.266 159.667 178.763 159.174 179.278 158.681C179.349 158.61 179.509 158.61 179.633 158.61C179.666 158.61 179.692 158.665 179.72 158.724ZM167.353 161.473C167.33 161.451 167.308 161.429 167.282 161.411C167.291 161.383 167.298 161.351 167.305 161.318C167.325 161.228 167.345 161.133 167.424 161.094C167.85 160.83 168.293 160.583 168.755 160.354C168.826 160.319 168.985 160.354 169.021 160.407C169.056 160.46 169.021 160.636 168.968 160.671C168.453 160.971 167.938 161.253 167.424 161.534C167.397 161.517 167.375 161.495 167.353 161.473Z" fill="#C4C4C4"/>
<path fill-rule="evenodd" clip-rule="evenodd" d="M185 141.192V134.996C186.83 134.509 188.66 134.023 190.494 133.542C190.902 133.434 191.311 133.324 191.722 133.214C192.846 132.913 193.977 132.61 195.107 132.327C195.445 132.238 195.48 132.098 195.409 131.798C195.232 131.217 195.072 130.618 194.93 130.019C194.877 129.772 194.735 129.667 194.486 129.632C194.105 129.57 193.719 129.504 193.333 129.438C192.947 129.372 192.561 129.306 192.179 129.244C191.78 129.18 191.802 128.939 191.823 128.704C191.831 128.616 191.839 128.528 191.824 128.451C191.771 128.17 191.949 128.082 192.197 128.046C192.836 127.958 193.475 127.853 194.22 127.729C193.963 127.183 193.71 126.655 193.457 126.126C193.204 125.598 192.951 125.07 192.694 124.524C193.008 124.384 193.303 124.244 193.606 124.1C193.799 124.008 193.995 123.915 194.202 123.819C195.356 126.426 196.492 128.997 197.645 131.657C197.75 131.505 197.852 131.36 197.951 131.22C198.104 131.003 198.251 130.796 198.391 130.583C198.726 130.08 199.057 129.573 199.388 129.065C199.986 128.15 200.584 127.233 201.212 126.338C201.461 125.985 201.851 125.633 202.241 125.51C204.531 124.77 206.838 124.048 209.251 123.784C209.396 123.768 209.512 123.758 209.605 123.758C209.936 123.758 209.983 123.888 209.996 124.383C209.999 124.447 210 124.51 210 124.574C210 124.576 210 124.578 210 124.58C209.999 125.961 209.46 127.182 208.63 128.275C207.388 129.931 205.773 131.146 203.963 132.08C202.674 132.733 201.355 133.305 200.029 133.88C199.602 134.066 199.174 134.251 198.745 134.44C198.373 134.599 198.195 134.757 198.284 135.215C198.816 137.681 199.331 140.165 199.828 142.631C199.994 143.456 200.171 144.281 200.348 145.107C200.737 146.925 201.127 148.746 201.407 150.575C202.064 154.872 202.614 159.17 203.129 163.486C203.303 164.938 203.37 166.414 203.437 167.884C203.452 168.215 203.467 168.546 203.484 168.876C203.64 171.599 203.762 174.34 203.884 177.064L203.892 177.242C203.963 178.722 204.034 180.206 204.105 181.69C204.176 183.174 204.247 184.658 204.318 186.137L204.371 187.194C204.389 187.423 204.3 187.546 204.052 187.546C203.413 187.564 202.756 187.599 202.117 187.635C201.815 187.652 201.798 187.458 201.78 187.247L201.766 187.08C201.593 185.056 201.419 183.017 201.194 180.994C201.117 180.331 200.944 179.669 200.771 179.006C200.747 178.911 200.722 178.817 200.697 178.722L198.408 169.897C198.273 169.395 198.142 168.893 198.009 168.382C197.88 167.889 197.749 167.387 197.61 166.868C197.431 166.991 197.258 167.117 197.088 167.241C196.703 167.521 196.33 167.792 195.924 168.013C195.125 168.453 194.859 169.052 195.001 169.95C195.06 170.347 195.059 170.75 195.059 171.152C195.058 171.481 195.058 171.809 195.09 172.134C195.214 173.173 195.374 174.213 195.587 175.234C195.924 176.978 196.261 178.704 196.687 180.43C197.083 182.046 197.522 183.651 197.963 185.261C198.094 185.74 198.225 186.22 198.355 186.701C198.373 186.789 198.391 186.877 198.426 186.948C198.603 187.353 198.426 187.441 198.036 187.458C197.45 187.494 196.864 187.564 196.279 187.635C195.995 187.67 195.871 187.582 195.764 187.3C194.948 184.992 194.131 182.703 193.297 180.395C193.111 179.875 192.921 179.357 192.732 178.839C192.272 177.584 191.813 176.33 191.399 175.058C191.052 173.997 190.764 172.913 190.478 171.834C190.412 171.587 190.347 171.341 190.281 171.095C190.21 170.848 190.156 170.743 189.872 170.831C188.268 171.303 186.642 171.68 185 171.982V158.607H185.187C185.809 158.659 185.897 158.589 185.933 158.131C185.986 157.604 185.615 157.585 185.26 157.567L185.258 157.567C185.172 157.564 185.086 157.561 185 157.558V155.282C185.11 155.239 185.219 155.196 185.329 155.154C185.613 155.049 185.809 154.925 185.667 154.591C185.529 154.284 185.292 154.356 185.067 154.425C185.06 154.428 185.053 154.43 185.045 154.432C185.03 154.438 185.015 154.444 185 154.45V151.131C185.547 150.954 186.091 150.779 186.643 150.627C186.662 150.622 186.68 150.617 186.698 150.612C187.318 150.434 187.33 150.431 187.175 149.712C187.092 149.725 187.008 149.734 186.926 149.742C186.798 149.755 186.673 149.767 186.554 149.8C186.425 149.834 186.296 149.867 186.165 149.9C185.827 149.986 185.485 150.073 185.152 150.187C185.101 150.204 185.051 150.221 185 150.238V148.24C185.979 148.101 186.958 147.963 187.938 147.827C188.435 147.756 188.701 147.58 188.879 147.105C189.359 145.739 189.868 144.391 190.378 143.042C190.565 142.547 190.751 142.052 190.937 141.556C190.944 141.529 190.948 141.501 190.953 141.47C190.96 141.422 190.969 141.367 190.99 141.292C190.813 141.274 190.653 141.257 190.511 141.239C188.825 141.222 187.139 141.208 185.454 141.195C185.302 141.194 185.151 141.193 185 141.192ZM194.22 136.924C193.226 138.368 191.984 139.425 190.192 139.795C191.487 138.298 191.221 136.871 189.961 135.391C191.647 135.409 192.96 136.008 194.22 136.924ZM188.825 135.532C188.861 135.532 188.914 135.532 189.021 135.55C188.098 137.118 188.027 138.562 189.517 139.901C189.421 139.901 189.336 139.903 189.259 139.905C189.123 139.909 189.009 139.912 188.896 139.901C187.636 139.724 186.536 139.196 185.702 138.227C185.631 138.157 185.56 137.945 185.613 137.875C186.376 136.748 187.388 135.955 188.701 135.55C188.737 135.532 188.79 135.532 188.825 135.532ZM188.187 159.734C187.938 159.91 187.761 159.752 187.707 159.382C187.743 159.326 187.775 159.268 187.808 159.21C187.89 159.064 187.971 158.919 188.098 158.818C188.772 158.149 189.482 157.497 190.174 156.863C190.334 156.722 190.511 156.599 190.689 156.475C190.712 156.459 190.734 156.441 190.757 156.424C190.926 156.295 191.088 156.172 191.292 156.405C191.505 156.669 191.487 156.916 191.239 157.127C190.706 157.62 190.156 158.113 189.606 158.589C189.145 158.994 188.683 159.382 188.187 159.734ZM186.31 152.682C186.272 152.631 186.241 152.589 186.199 152.547C186.238 152.523 186.276 152.496 186.314 152.469C186.413 152.398 186.514 152.326 186.643 152.301C187.903 151.79 189.163 151.297 190.44 150.804C190.512 150.78 190.609 150.804 190.703 150.828C190.747 150.84 190.791 150.851 190.831 150.856C190.811 150.891 190.793 150.929 190.774 150.967C190.726 151.068 190.677 151.171 190.6 151.209C189.801 151.561 188.985 151.896 188.169 152.213C187.809 152.348 187.441 152.466 187.069 152.586C186.91 152.637 186.75 152.688 186.589 152.741C186.548 152.751 186.5 152.744 186.45 152.735C186.414 152.73 186.378 152.724 186.341 152.724C186.33 152.709 186.319 152.695 186.31 152.682ZM190.729 153.64C190.343 153.703 189.941 153.768 189.5 153.833C189.474 153.813 189.434 153.788 189.39 153.762C189.282 153.695 189.15 153.614 189.163 153.551C189.18 153.375 189.322 153.076 189.464 153.041C190.063 152.91 190.662 152.827 191.27 152.743C191.401 152.725 191.533 152.707 191.665 152.688C191.931 152.653 192.091 152.759 192.108 153.041C192.126 153.305 192.002 153.446 191.736 153.481C191.402 153.531 191.072 153.584 190.729 153.64ZM186.354 156.691C186.321 156.695 186.286 156.699 186.252 156.704C186.394 156.229 188.95 154.908 189.748 154.925C189.72 154.967 189.695 155.008 189.671 155.048C189.602 155.159 189.543 155.256 189.464 155.295C188.506 155.753 187.53 156.211 186.554 156.651C186.494 156.675 186.425 156.683 186.354 156.691Z" fill="#C4C4C4"/>
</svg>
