<svg width="63" height="24" viewBox="0 0 63 24" fill="none" xmlns="http://www.w3.org/2000/svg">
<path d="M0.96 7.6H5.28V8.56H1.98V10.96H5.16V11.92H1.98V16H0.96V7.6ZM7.96 7.6H8.98V16H7.96V7.6ZM11.9014 7.6H12.9214V15.04H16.2214V16H11.9014V7.6ZM16.62 8.56V7.6H21.96V8.56H19.8V16H18.78V8.56H16.62ZM24.0381 7.6H28.8381V8.56H25.0581V10.96H28.5981V11.92H25.0581V15.04H28.8381V16H24.0381V7.6ZM31.6358 7.6H33.9158C34.4598 7.6 34.9438 7.704 35.3678 7.912C35.7998 8.112 36.1398 8.4 36.3878 8.776C36.6438 9.152 36.7718 9.6 36.7718 10.12C36.7718 10.752 36.5838 11.28 36.2078 11.704C35.8398 12.12 35.3598 12.4 34.7678 12.544L37.2758 16H36.0158L33.6758 12.64H32.6558V16H31.6358V7.6ZM33.9158 8.5H32.6558V11.74H33.9158C34.4598 11.74 34.8998 11.6 35.2358 11.32C35.5798 11.032 35.7518 10.632 35.7518 10.12C35.7518 9.6 35.5798 9.2 35.2358 8.92C34.8998 8.64 34.4598 8.5 33.9158 8.5Z" fill="#161412"/>
<path d="M50 6V18" stroke="#161412"/>
<path d="M55.5 18L55.5 6" stroke="#161412"/>
<path d="M61 18L61 6" stroke="#161412"/>
<path d="M48 14.6953L52 14.6953" stroke="#161412"/>
<path d="M57.5 9.24219L53.5 9.24219" stroke="#161412"/>
<path d="M63 12.5586L59 12.5586" stroke="#161412"/>
</svg>
