<svg width="370" height="370" viewBox="0 0 370 370" fill="none" xmlns="http://www.w3.org/2000/svg">
<path d="M370 0H0V370H370V0Z" fill="#F4F4F2"/>
<path d="M149.861 205.863V213.59L142 205.344V216.244H143.261V208.518L151.121 216.763V205.863H149.861ZM156.243 211.054C156.243 210.272 156.411 209.575 156.748 208.962C157.094 208.349 157.563 207.865 158.157 207.509C158.75 207.153 159.422 206.975 160.173 206.975C160.935 206.975 161.607 207.153 162.19 207.509C162.784 207.865 163.248 208.349 163.584 208.962C163.93 209.575 164.103 210.272 164.103 211.054C164.103 211.835 163.93 212.532 163.584 213.145C163.248 213.758 162.784 214.242 162.19 214.598C161.607 214.954 160.935 215.132 160.173 215.132C159.422 215.132 158.75 214.954 158.157 214.598C157.563 214.242 157.094 213.758 156.748 213.145C156.411 212.532 156.243 211.835 156.243 211.054ZM154.909 211.054C154.909 211.805 155.037 212.507 155.294 213.159C155.561 213.812 155.932 214.381 156.407 214.865C156.881 215.34 157.44 215.715 158.082 215.992C158.725 216.259 159.422 216.392 160.173 216.392C160.935 216.392 161.632 216.259 162.265 215.992C162.907 215.715 163.466 215.34 163.94 214.865C164.415 214.381 164.781 213.812 165.038 213.159C165.305 212.507 165.438 211.805 165.438 211.054C165.438 210.292 165.305 209.59 165.038 208.948C164.781 208.295 164.415 207.732 163.94 207.257C163.466 206.773 162.907 206.397 162.265 206.13C161.632 205.853 160.935 205.715 160.173 205.715C159.422 205.715 158.725 205.853 158.082 206.13C157.44 206.397 156.881 206.773 156.407 207.257C155.932 207.732 155.561 208.295 155.294 208.948C155.037 209.59 154.909 210.292 154.909 211.054ZM175.669 205.863V216.244H176.929V205.863H175.669ZM182.745 209.229L186.126 215.28L189.507 209.229L190.279 216.244H191.539L190.279 205.344L186.126 212.863L181.974 205.344L180.713 216.244H181.974L182.745 209.229ZM196.308 213.13H201.795L201.35 211.943H196.753L196.308 213.13ZM199.022 208.206L200.802 212.388L200.92 212.685L202.433 216.244H203.842L199.022 205.344L194.202 216.244H195.611L197.153 212.596L197.272 212.329L199.022 208.206ZM211.478 212.166H214.933C214.844 212.571 214.701 212.952 214.503 213.308C214.315 213.664 214.073 213.98 213.777 214.257C213.48 214.534 213.124 214.751 212.709 214.909C212.303 215.058 211.844 215.132 211.33 215.132C210.598 215.132 209.935 214.959 209.342 214.613C208.749 214.267 208.274 213.787 207.919 213.174C207.573 212.561 207.4 211.854 207.4 211.054C207.4 210.243 207.573 209.536 207.919 208.933C208.274 208.32 208.749 207.84 209.342 207.494C209.935 207.148 210.598 206.975 211.33 206.975C212.121 206.975 212.808 207.133 213.391 207.45C213.974 207.756 214.429 208.186 214.755 208.74L215.645 207.924C215.349 207.44 214.983 207.035 214.548 206.708C214.123 206.382 213.638 206.135 213.094 205.967C212.56 205.799 211.972 205.715 211.33 205.715C210.578 205.715 209.881 205.848 209.238 206.115C208.596 206.372 208.037 206.743 207.563 207.227C207.088 207.702 206.717 208.265 206.45 208.918C206.193 209.571 206.065 210.282 206.065 211.054C206.065 211.825 206.193 212.537 206.45 213.189C206.717 213.842 207.088 214.41 207.563 214.895C208.037 215.369 208.596 215.74 209.238 216.007C209.881 216.264 210.578 216.392 211.33 216.392C212.121 216.392 212.822 216.249 213.435 215.962C214.058 215.666 214.582 215.265 215.007 214.761C215.433 214.257 215.754 213.683 215.971 213.041C216.189 212.388 216.298 211.701 216.298 210.979H211.478V212.166ZM220.856 216.244H226.092V215.058H220.856V216.244ZM220.856 207.049H226.092V205.863H220.856V207.049ZM220.856 211.202H225.795V210.015H220.856V211.202ZM220.159 205.863V216.244H221.42V205.863H220.159Z" fill="#C4C4C4"/>
<path d="M144.106 233.13H149.593L149.148 231.943H144.551L144.106 233.13ZM146.82 228.206L148.6 232.388L148.718 232.685L150.231 236.244H151.64L146.82 225.344L142 236.244H143.409L144.951 232.596L145.07 232.329L146.82 228.206ZM156.616 233.901L153.205 225.863H151.796L156.616 236.763L161.436 225.863H160.027L156.616 233.901ZM163.698 233.13H169.186L168.741 231.943H164.143L163.698 233.13ZM166.412 228.206L168.192 232.388L168.311 232.685L169.823 236.244H171.232L166.412 225.344L161.592 236.244H163.001L164.544 232.596L164.662 232.329L166.412 228.206ZM173.978 225.863V236.244H175.239V225.863H173.978ZM179.096 225.863V236.244H184.435V235.058H180.357V225.863H179.096ZM187.256 225.863V236.244H188.517V225.863H187.256ZM193.368 233.13H198.855L198.41 231.943H193.813L193.368 233.13ZM196.082 228.206L197.861 232.388L197.98 232.685L199.493 236.244H200.902L196.082 225.344L191.262 236.244H192.671L194.213 232.596L194.332 232.329L196.082 228.206ZM204.641 230.757H206.317C206.94 230.757 207.479 230.668 207.934 230.49C208.398 230.312 208.759 230.05 209.016 229.704C209.273 229.358 209.402 228.943 209.402 228.458C209.402 227.865 209.273 227.381 209.016 227.005C208.759 226.619 208.398 226.333 207.934 226.145C207.479 225.957 206.94 225.863 206.317 225.863H203.648V236.244H206.465C207.138 236.244 207.736 236.135 208.26 235.918C208.794 235.691 209.214 235.354 209.52 234.909C209.837 234.455 209.995 233.886 209.995 233.204C209.995 232.729 209.906 232.319 209.728 231.973C209.55 231.627 209.298 231.345 208.972 231.128C208.655 230.9 208.285 230.732 207.859 230.623C207.434 230.515 206.97 230.46 206.465 230.46H204.641V231.157H206.465C206.802 231.157 207.108 231.202 207.385 231.291C207.662 231.37 207.899 231.494 208.097 231.662C208.304 231.83 208.463 232.037 208.571 232.284C208.68 232.532 208.734 232.813 208.734 233.13C208.734 233.555 208.636 233.916 208.438 234.212C208.25 234.509 207.983 234.736 207.637 234.895C207.301 235.053 206.91 235.132 206.465 235.132H204.908V226.975H206.317C206.841 226.975 207.276 227.114 207.622 227.39C207.968 227.657 208.141 228.038 208.141 228.532C208.141 228.859 208.062 229.135 207.904 229.363C207.746 229.59 207.528 229.763 207.251 229.882C206.975 230.001 206.663 230.06 206.317 230.06H204.641V230.757ZM213.4 225.863V236.244H218.739V235.058H214.661V225.863H213.4ZM222.257 236.244H227.492V235.058H222.257V236.244ZM222.257 227.049H227.492V225.863H222.257V227.049ZM222.257 231.202H227.195V230.015H222.257V231.202ZM221.56 225.863V236.244H222.821V225.863H221.56Z" fill="#C4C4C4"/>
<path fill-rule="evenodd" clip-rule="evenodd" d="M180.351 140.537C180.179 140.537 179.922 140.413 179.853 140.271C179.365 139.277 178.923 138.262 178.44 137.266C178.206 136.784 177.945 136.246 178.651 136.045L180.661 135.485C185.305 134.192 189.93 132.856 194.588 131.638C194.914 131.549 194.949 131.407 194.88 131.105C194.708 130.519 194.554 129.915 194.416 129.312C194.365 129.063 194.227 128.957 193.987 128.921C193.618 128.859 193.244 128.792 192.871 128.726C192.497 128.659 192.123 128.593 191.754 128.53C191.231 128.443 191.224 127.404 191.771 127.323C192.39 127.234 193.008 127.128 193.729 127.003C193.231 125.903 192.75 124.873 192.252 123.772C192.75 123.541 193.197 123.31 193.712 123.062C194.828 125.69 195.927 128.282 197.044 130.963C198.214 129.189 199.308 127.364 200.496 125.601C200.736 125.246 201.114 124.891 201.492 124.766C203.707 124.02 205.94 123.292 208.275 123.026C208.911 122.955 208.979 122.991 208.997 123.63C209.047 125.073 208.506 126.413 207.674 127.554C206.472 129.223 204.909 130.448 203.158 131.389C201.911 132.047 200.634 132.624 199.351 133.204L199.195 133.274C198.833 133.438 198.471 133.602 198.108 133.769C197.748 133.928 197.576 134.088 197.662 134.55C198.35 137.869 198.977 141.201 199.659 144.521C200.036 146.354 200.413 148.189 200.685 150.033C201.32 154.366 201.852 158.698 202.35 163.048C202.556 164.842 202.608 166.671 202.694 168.482C202.931 172.786 203.097 177.093 203.295 181.399L203.501 185.883L203.553 186.948C203.57 187.179 203.484 187.303 203.243 187.303C202.625 187.321 201.99 187.356 201.371 187.392C201.08 187.41 201.062 187.214 201.045 187.001C200.81 184.127 200.697 181.218 199.998 178.407L197.782 169.511L197.348 167.796C197.239 167.359 197.127 166.915 197.009 166.457C195.124 167.816 194.543 168.34 194.541 170.776C194.539 172.159 194.781 173.539 195.052 174.892C195.774 178.785 196.734 182.621 197.731 186.451C197.748 186.54 197.765 186.628 197.799 186.699C197.971 187.108 197.799 187.197 197.422 187.214C196.855 187.25 196.288 187.321 195.721 187.392C195.447 187.427 195.326 187.339 195.223 187.054C193.38 181.626 191.35 176.277 189.917 170.719C189.848 170.47 189.796 170.364 189.522 170.453C186.513 171.375 183.46 171.701 180.385 172.249C180.214 172.267 180.008 172.391 179.922 172.533C177.861 176.031 175.027 178.624 171.335 180.186C171.077 180.293 171.009 180.417 171.06 180.719C171.429 182.951 171.905 185.209 172.073 187.466C172.073 187.488 170.031 187.522 169.841 187.522C169.755 187.522 169.635 187.327 169.617 187.202L169.485 186.567L168.158 180.026C168.106 179.796 168.192 179.458 168.329 179.263C170.041 176.949 171.799 174.693 173.48 172.376C173.277 172.365 173.083 172.357 172.894 172.35C171.924 172.312 170.988 172.011 170.339 172.926C169.119 174.666 167.608 176.105 165.788 177.117C165.135 177.472 164.448 177.738 163.727 178.058C164.507 181.117 165.292 184.176 166.063 187.238C165.221 187.238 164.448 187.256 163.675 187.22C163.607 187.22 163.504 187.007 163.469 186.883L161.563 180.65C161.27 179.704 160.611 178.513 160.613 177.515C160.613 177.337 160.671 177.172 160.79 176.993C162.358 174.784 163.917 172.569 165.477 170.354C165.633 170.132 165.644 169.926 165.547 169.675C164.448 166.887 163.452 164.064 162.92 161.098L162.8 160.497L162.713 160.424C162.301 161.081 161.889 161.738 161.443 162.43C160.445 160.995 161.529 159.05 162.731 158.118C165.382 156.052 168.085 154.049 170.714 151.955C172.169 150.795 173.612 149.581 175.45 149.096C177.858 148.444 180.483 148.323 182.947 147.956C184.513 147.723 186.08 147.49 187.65 147.263C188.131 147.192 188.388 147.015 188.56 146.535C189.195 144.653 189.883 142.803 190.552 140.942C190.63 140.62 190.391 140.655 190.14 140.622C186.877 140.587 183.614 140.572 180.351 140.537ZM182.183 155.848C182.117 155.863 182.045 155.878 181.965 155.898C181.935 155.88 181.892 155.863 181.847 155.846C181.764 155.814 181.672 155.778 181.639 155.721C181.605 155.614 181.656 155.437 181.725 155.33C181.811 155.206 181.948 155.099 182.086 155.046L184.806 153.942C185.038 153.849 185.305 153.743 185.452 154.084C185.589 154.421 185.4 154.546 185.125 154.652L183.448 155.356C183.347 155.399 183.246 155.445 183.144 155.492C182.832 155.634 182.516 155.778 182.183 155.848ZM180.842 151.873C180.596 151.939 180.243 152.033 180.076 151.548C181.154 150.844 182.349 150.475 183.55 150.104C183.965 149.976 184.38 149.847 184.791 149.705C185.48 149.467 186.193 149.289 186.911 149.165C187.061 149.89 187.049 149.894 186.45 150.073L183.992 150.873C183.792 150.94 183.592 151.007 183.393 151.074C182.548 151.359 181.703 151.644 180.842 151.873ZM177.26 154.425V154.389C177.033 154.389 176.806 154.39 176.577 154.391C175.887 154.395 175.187 154.398 174.478 154.371C174.168 154.354 173.877 154.247 173.585 154.14C173.516 154.123 173.413 153.927 173.43 153.892C173.467 153.845 173.505 153.791 173.543 153.737C173.661 153.567 173.785 153.39 173.928 153.377C174.804 153.288 175.697 153.27 176.59 153.27C177.091 153.27 177.604 153.317 178.11 153.363C178.228 153.374 178.345 153.385 178.462 153.395L178.495 153.397C178.742 153.413 178.994 153.43 178.977 153.821C178.943 154.247 178.788 154.425 178.41 154.425H177.26ZM171.103 158.223C170.967 158.279 170.827 158.337 170.682 158.402C170.635 158.375 170.581 158.348 170.528 158.32C170.367 158.237 170.206 158.153 170.219 158.1C170.253 157.887 170.356 157.585 170.51 157.496C171.695 156.804 172.897 156.147 174.099 155.49C174.391 155.348 174.735 155.259 174.89 155.667C175.027 156.023 174.838 156.218 174.495 156.395C173.948 156.678 173.413 156.986 172.879 157.292C172.508 157.506 172.138 157.719 171.764 157.923C171.558 158.035 171.337 158.126 171.103 158.223ZM175.628 159.078C175.69 159.084 175.753 159.09 175.817 159.094C175.869 159.751 175.731 159.893 175.216 159.947C174.684 159.991 174.156 160.049 173.627 160.107C173.099 160.164 172.571 160.222 172.039 160.266C171.764 160.284 171.472 160.195 171.215 160.106C171.146 160.071 171.094 159.716 171.163 159.663C171.352 159.521 171.592 159.361 171.833 159.343C172.657 159.25 173.481 159.187 174.306 159.123C174.581 159.102 174.855 159.081 175.13 159.059C175.294 159.046 175.458 159.061 175.628 159.078ZM175.485 157.203C175.417 157.204 175.345 157.207 175.268 157.212C175.392 156.713 175.729 156.608 176.034 156.513C176.545 156.355 177.05 156.176 177.556 155.997C177.935 155.863 178.314 155.729 178.695 155.604C179.007 155.501 179.319 155.399 179.63 155.295C179.653 155.289 179.675 155.279 179.698 155.269C179.744 155.249 179.79 155.23 179.836 155.241C179.956 155.277 180.076 155.33 180.179 155.383C180.158 155.422 180.14 155.465 180.123 155.507C180.083 155.603 180.045 155.696 179.973 155.721C179.613 155.881 179.235 156.023 178.857 156.147L175.869 157.159C175.752 157.195 175.628 157.199 175.485 157.203ZM175.909 152.137C175.838 152.157 175.762 152.179 175.68 152.205C175.659 152.192 175.633 152.178 175.606 152.163C175.517 152.113 175.413 152.055 175.439 152.027C175.456 151.868 175.508 151.672 175.628 151.584C175.92 151.371 176.264 151.193 176.59 151.033L176.807 150.934C177.281 150.719 177.747 150.508 178.239 150.323C178.346 150.286 178.487 150.326 178.626 150.366C178.687 150.384 178.748 150.401 178.805 150.412C178.761 150.478 178.725 150.556 178.691 150.633C178.632 150.763 178.576 150.889 178.479 150.944C177.855 151.275 177.23 151.567 176.595 151.864L176.246 152.027C176.138 152.072 176.03 152.103 175.909 152.137ZM180.866 160.692C180.766 160.681 180.673 160.595 180.578 160.506C180.526 160.459 180.474 160.41 180.42 160.373C180.471 160.337 180.523 160.29 180.574 160.243C180.677 160.148 180.78 160.053 180.883 160.053C181.794 160.035 182.704 160.053 183.614 160.089C183.7 160.089 183.795 160.189 183.886 160.284C183.922 160.323 183.958 160.36 183.992 160.391C183.949 160.424 183.906 160.466 183.862 160.509C183.767 160.602 183.669 160.698 183.562 160.71C183.268 160.748 182.966 160.741 182.66 160.734C182.454 160.729 182.247 160.725 182.038 160.721C181.647 160.714 181.255 160.707 180.866 160.692ZM167.247 157.195C167.728 156.804 170.459 155.774 171.215 155.739C171.169 155.802 171.131 155.86 171.096 155.912C171.015 156.037 170.956 156.127 170.871 156.165C169.981 156.53 169.092 156.875 168.194 157.222L168.192 157.223C167.912 157.331 167.632 157.44 167.351 157.55C167.308 157.561 167.253 157.558 167.176 157.554C167.128 157.552 167.073 157.55 167.007 157.55C167.04 157.498 167.068 157.451 167.093 157.408C167.147 157.316 167.189 157.243 167.247 157.195ZM175.56 162.202V162.184C175.466 162.184 175.371 162.186 175.275 162.188C174.986 162.195 174.693 162.202 174.409 162.148C174.303 162.136 174.213 162.048 174.122 161.96C174.081 161.92 174.04 161.88 173.997 161.847C174.042 161.817 174.085 161.78 174.128 161.744C174.215 161.67 174.3 161.598 174.392 161.598C175.199 161.598 175.989 161.616 176.779 161.651C176.848 161.651 176.916 161.73 176.985 161.809C177.019 161.849 177.054 161.888 177.088 161.918C177.045 161.949 177.004 161.99 176.964 162.03C176.892 162.102 176.822 162.173 176.745 162.184C176.448 162.211 176.152 162.207 175.856 162.204C175.757 162.203 175.658 162.202 175.56 162.202ZM182.328 153.495C182.133 153.574 181.937 153.652 181.742 153.732C181.711 153.7 181.676 153.673 181.643 153.648C181.585 153.603 181.536 153.565 181.536 153.519C181.536 153.395 181.587 153.199 181.673 153.146C181.948 152.986 182.24 152.844 182.549 152.72C182.927 152.578 183.305 152.436 183.683 152.329C183.769 152.294 183.957 152.4 184.009 152.489C184.043 152.56 183.992 152.791 183.923 152.827C183.438 153.047 182.936 153.25 182.429 153.454L182.328 153.495ZM179.697 158.25C179.714 158.285 179.73 158.322 179.75 158.349C179.734 158.376 179.721 158.404 179.709 158.43C179.683 158.488 179.66 158.537 179.613 158.562C179.458 158.727 179.305 158.895 179.153 159.063C178.847 159.398 178.542 159.734 178.221 160.053C178.139 160.139 178.015 160.166 177.895 160.191C177.842 160.203 177.789 160.214 177.741 160.231C177.752 160.172 177.756 160.107 177.76 160.043C177.767 159.914 177.775 159.787 177.844 159.716C178.29 159.201 178.771 158.704 179.269 158.207C179.392 158.08 179.626 158.096 179.697 158.25ZM167.728 161.021C167.707 160.999 167.685 160.977 167.66 160.959C167.669 160.93 167.676 160.898 167.682 160.865C167.701 160.775 167.721 160.678 167.797 160.639C168.209 160.373 168.639 160.124 169.085 159.893C169.154 159.858 169.308 159.893 169.343 159.947C169.377 160 169.343 160.178 169.291 160.213C168.793 160.515 168.295 160.799 167.797 161.083C167.771 161.065 167.75 161.043 167.728 161.021ZM187.89 159.269C187.65 159.446 187.478 159.286 187.426 158.914C187.461 158.858 187.492 158.799 187.524 158.74C187.603 158.594 187.682 158.447 187.804 158.345C188.457 157.671 189.144 157.014 189.814 156.374C189.968 156.232 190.14 156.108 190.312 155.984C190.334 155.967 190.356 155.95 190.378 155.932C190.542 155.802 190.699 155.678 190.896 155.913C191.102 156.179 191.084 156.428 190.844 156.641C190.329 157.138 189.796 157.635 189.264 158.114C188.818 158.523 188.371 158.914 187.89 159.269ZM186.074 152.159C186.037 152.108 186.007 152.066 185.967 152.024C186.005 152 186.041 151.973 186.078 151.945C186.174 151.874 186.272 151.801 186.396 151.776C187.615 151.261 188.835 150.763 190.071 150.266C190.141 150.242 190.235 150.267 190.325 150.291C190.368 150.303 190.41 150.314 190.449 150.32C190.43 150.354 190.412 150.393 190.394 150.431C190.348 150.533 190.3 150.636 190.226 150.675C189.453 151.03 188.663 151.367 187.873 151.687C187.525 151.823 187.168 151.943 186.809 152.063C186.655 152.114 186.5 152.166 186.345 152.219C186.304 152.23 186.258 152.222 186.209 152.214C186.175 152.208 186.14 152.202 186.104 152.202L186.074 152.159ZM190.35 153.126C189.977 153.189 189.588 153.255 189.161 153.32C189.136 153.3 189.098 153.275 189.055 153.248C188.95 153.181 188.822 153.1 188.835 153.036C188.852 152.859 188.989 152.557 189.127 152.521C189.706 152.39 190.286 152.306 190.875 152.222L190.879 152.221L190.887 152.22C191.01 152.202 191.133 152.184 191.256 152.166C191.514 152.131 191.668 152.237 191.686 152.521C191.703 152.788 191.582 152.93 191.325 152.965C191.002 153.015 190.682 153.069 190.35 153.126ZM186.117 156.201C186.084 156.205 186.051 156.209 186.018 156.215C186.156 155.735 188.629 154.403 189.401 154.421C189.375 154.463 189.35 154.505 189.326 154.545C189.26 154.657 189.203 154.755 189.127 154.794C188.199 155.256 187.255 155.717 186.31 156.161C186.252 156.185 186.186 156.193 186.117 156.201ZM188.697 134.885C187.804 136.465 187.736 137.921 189.178 139.271C187.752 139.271 186.411 138.704 185.486 137.584C185.417 137.513 185.348 137.3 185.4 137.229C186.138 136.092 187.117 135.293 188.388 134.885C188.466 134.844 188.594 134.867 188.68 134.882L188.697 134.885ZM193.729 136.27C192.768 137.726 191.565 138.791 189.831 139.164C191.085 137.655 190.827 136.217 189.608 134.725C191.239 134.743 192.51 135.347 193.729 136.27ZM182.322 158.135C182.02 158.14 181.701 158.144 181.639 157.708C181.587 157.353 181.931 157.016 182.377 157.016L184.841 157.075C185.297 157.093 185.761 157.111 185.709 157.652C185.671 158.158 185.374 158.148 184.996 158.135C184.387 158.115 183.775 158.122 183.165 158.129C182.884 158.132 182.603 158.135 182.322 158.135Z" fill="#C4C4C4"/>
</svg>
